<svg width="48" height="48" viewBox="0 0 48 48" fill="none" xmlns="http://www.w3.org/2000/svg">
<path fill-rule="evenodd" clip-rule="evenodd" d="M7.02901 7.03144C16.4022 -2.34058 31.597 -2.34058 40.9704 7.03144C50.3424 16.4048 50.3424 31.5997 40.9704 40.9729C31.5972 50.3449 16.4024 50.3449 7.02901 40.9729C-2.343 31.5997 -2.343 16.4048 7.02901 7.03144ZM28.2239 19.7293C28.2611 18.8497 28.2674 17.8992 28.2262 17.1536L28.1112 15.0773L28.594 15.2605C30.1924 15.8677 31.9038 17.4048 32.6531 18.9063C33.2109 20.024 33.4838 21.3647 33.4323 22.734C33.3933 23.7705 33.3936 23.7714 34.0627 24.1143L34.7321 24.4574L34.1521 25.0552L33.5722 25.653L34.1493 25.8954L34.7265 26.1379L34.1439 26.801C33.5843 27.4375 33.5744 27.4738 33.8953 27.7081C34.0791 27.8424 34.3335 27.9523 34.4605 27.9523C34.9657 27.9523 34.5067 28.728 33.8602 28.9668C33.5898 29.0667 32.654 29.4064 31.7809 29.7219C30.7179 30.106 29.4648 30.7728 27.9884 31.74C25.5372 33.346 24.9804 33.8146 24.5612 34.6243C24.4039 34.9282 24.1993 35.177 24.1068 35.177C24.0142 35.177 23.781 34.8688 23.5888 34.4921C22.9148 33.1724 18.7115 30.4533 15.7952 29.4503C14.3219 28.9437 13.8793 28.7145 13.7262 28.3791C13.6192 28.1444 13.6042 27.9523 13.6927 27.9523C13.7814 27.9523 14.0628 27.873 14.318 27.776L14.7823 27.5997L14.1319 26.8068C13.7204 26.3051 13.5742 26.014 13.7336 26.014C13.8725 26.014 14.1337 25.906 14.3143 25.7742C14.6262 25.5462 14.614 25.5085 14.0686 25.0218L13.4946 24.5095L14.2058 24.1102C14.9095 23.7152 14.916 23.7018 14.8197 22.8801C14.4888 20.0559 16.2966 16.9053 19.0297 15.5433L19.9625 15.0785L20.0507 18.5114C20.0589 18.8321 20.0685 19.1376 20.0793 19.4253L22.4144 17.0902C23.2897 16.2151 24.7097 16.2151 25.5848 17.0902L28.2239 19.7293Z" fill="url(#paint0_linear_39_4365)"/>
<path fill-rule="evenodd" clip-rule="evenodd" d="M10.0881 10.0894C17.7709 2.40658 30.2286 2.40658 37.9115 10.0894C45.5943 17.7723 45.5943 30.23 37.9115 37.9128C30.2286 45.5957 17.7709 45.5957 10.0881 37.9128C2.40522 30.23 2.40522 17.7723 10.0881 10.0894ZM19.0297 15.5425C16.2966 16.9045 14.4888 20.0551 14.8197 22.8793C14.916 23.701 14.9095 23.7143 14.2058 24.1094L13.4946 24.5087L14.0686 25.021C14.614 25.5077 14.6262 25.5454 14.3143 25.7734C14.1337 25.9052 13.8725 26.0132 13.7336 26.0132C13.5742 26.0132 13.7204 26.3043 14.1319 26.806L14.7823 27.5989L14.318 27.7751C14.0628 27.8722 13.7814 27.9515 13.6927 27.9515C13.6042 27.9515 13.6192 28.1436 13.7262 28.3783C13.8793 28.7136 14.3219 28.9429 15.7952 29.4495C18.7115 30.4525 22.9148 33.1716 23.5888 34.4913C23.781 34.868 24.0142 35.1762 24.1068 35.1762C24.1993 35.1762 24.4039 34.9274 24.5612 34.6234C24.9804 33.8137 25.5372 33.3452 27.9884 31.7392C29.4648 30.772 30.7179 30.1052 31.7809 29.7211C32.654 29.4056 33.5898 29.0659 33.8602 28.966C34.5067 28.7272 34.9657 27.9515 34.4605 27.9515C34.3335 27.9515 34.0791 27.8416 33.8953 27.7073C33.5744 27.4729 33.5843 27.4366 34.1439 26.8002L34.7265 26.1371L34.1493 25.8946L33.5722 25.6521L34.1521 25.0544L34.7321 24.4566L34.0627 24.1135C33.3936 23.7706 33.3933 23.7697 33.4323 22.7332C33.4838 21.3639 33.2109 20.0232 32.6531 18.9055C31.9038 17.404 30.1924 15.8669 28.594 15.2597L28.1112 15.0764L28.2262 17.1528C28.3273 18.9811 28.1426 22.0412 27.9175 22.2662C27.873 22.3106 27.2969 22.0816 26.6374 21.7572C25.5995 21.2467 25.2596 21.1674 24.1114 21.1674C22.9631 21.1674 22.6322 21.2447 21.6493 21.7424C20.8483 22.1482 20.4588 22.2624 20.3264 22.1304C20.2133 22.0176 20.1039 20.5815 20.0507 18.5106L19.9625 15.0777L19.0297 15.5425Z" fill="url(#paint1_linear_39_4365)"/>
<path d="M15.5675 30.1115C16.9557 30.5889 18.6836 31.4891 20.1526 32.4394C20.8845 32.9128 21.5377 33.3895 22.0423 33.8202C22.5686 34.2695 22.8642 34.6115 22.9654 34.8097C23.0764 35.0272 23.2038 35.2345 23.3269 35.3973C23.3869 35.4766 23.4594 35.5634 23.5405 35.6379C23.5806 35.6747 23.6385 35.723 23.7116 35.766C23.7736 35.8023 23.9151 35.8762 24.1069 35.8762C24.2678 35.8762 24.3922 35.8248 24.4603 35.7906C24.5341 35.7536 24.5932 35.7107 24.6355 35.6764C24.7199 35.608 24.7925 35.5288 24.8504 35.4584C24.9689 35.3143 25.0855 35.1334 25.1829 34.9452L24.5612 34.6234L25.1829 34.9452C25.5019 34.3289 25.8825 33.9559 28.372 32.3247C29.8252 31.3727 31.0273 30.7377 32.0188 30.3794C32.8913 30.0642 33.8296 29.7236 34.1028 29.6226C34.5819 29.4456 34.9831 29.0832 35.1947 28.7257C35.2856 28.5721 35.4339 28.2654 35.3523 27.9168C35.3037 27.7095 35.178 27.5177 34.9784 27.3924C34.8727 27.3261 34.7638 27.2893 34.6628 27.2701C34.665 27.2675 34.6673 27.2649 34.6696 27.2623L34.6697 27.2622L35.2523 26.5991L35.8944 25.8684L34.9976 25.4917L34.7884 25.4038L35.2346 24.9439L35.8932 24.265L35.0514 23.8336L34.382 23.4905C34.2494 23.4225 34.1721 23.3821 34.1216 23.3526C34.1209 23.3416 34.1203 23.329 34.1199 23.3147C34.1159 23.1942 34.1216 23.0289 34.1318 22.7595C34.1873 21.2845 33.8946 19.8257 33.2795 18.593L33.2795 18.593C32.45 16.9308 30.6019 15.2737 28.8425 14.6053L28.8424 14.6053L28.3596 14.422L27.3527 14.0398L27.4122 15.1152L27.5272 17.1914C27.5272 17.1914 27.5273 17.1914 27.5273 17.1915C27.5758 18.0705 27.556 19.2642 27.4954 20.2686C27.4707 20.6782 27.4397 21.0477 27.4051 21.3453C27.2639 21.2818 27.1086 21.2088 26.9464 21.129L26.9463 21.129C26.4208 20.8705 26.0159 20.6921 25.5749 20.5892C25.1335 20.4861 24.6934 20.4674 24.1114 20.4674C23.531 20.4674 23.0922 20.4855 22.6591 20.5866C22.2237 20.6883 21.8328 20.8649 21.3331 21.1178L21.333 21.1179C21.159 21.206 21.0133 21.2757 20.8919 21.3298C20.8826 21.2317 20.8733 21.1223 20.8641 21.0016C20.8172 20.3857 20.7769 19.5218 20.7504 18.4927C20.7504 18.4927 20.7504 18.4926 20.7504 18.4926L20.6622 15.0597L20.634 13.9609L19.6502 14.4512L18.7175 14.916C18.7175 14.916 18.7175 14.916 18.7175 14.916C15.7463 16.3966 13.7559 19.8156 14.1245 22.9607L14.1245 22.9608C14.1453 23.1384 14.1573 23.248 14.1616 23.3257C14.1 23.3651 14.0096 23.4168 13.8632 23.499C13.8632 23.499 13.8632 23.499 13.8631 23.499L13.1519 23.8983L12.2971 24.3782L13.0285 25.031L13.4179 25.3785C13.3567 25.4053 13.2939 25.4428 13.2333 25.4946C13.0404 25.6595 12.9818 25.8731 12.9722 26.0211C12.9567 26.2591 13.0546 26.459 13.0932 26.5357C13.1979 26.7441 13.3791 26.9919 13.5907 27.2499C13.5907 27.2499 13.5907 27.2499 13.5907 27.2499L13.597 27.2576C13.4807 27.2725 13.3611 27.3153 13.2528 27.394C13.1204 27.4902 13.0448 27.6108 13.0031 27.7073C12.9272 27.8827 12.9317 28.0481 12.9383 28.1316C12.953 28.3198 13.0167 28.5095 13.0894 28.6688L13.0895 28.6691C13.2609 29.0446 13.5722 29.2789 13.9438 29.4713C14.3091 29.6605 14.8336 29.8591 15.5675 30.1115ZM15.5675 30.1115L15.7952 29.4495M15.5675 30.1115L15.7952 29.4495M15.7952 29.4495C14.7067 29.0752 14.1809 28.8523 13.9187 28.6262L23.5888 34.4913C22.9148 33.1716 18.7115 30.4525 15.7952 29.4495ZM13.97 25.1556C13.97 25.1556 13.9695 25.1561 13.9683 25.1571C13.9694 25.1561 13.97 25.1556 13.97 25.1556ZM34.24 27.0902C34.2386 27.089 34.2381 27.0885 34.2384 27.0887C34.2386 27.0889 34.2391 27.0894 34.24 27.0902Z" stroke="url(#paint2_linear_39_4365)" stroke-width="1.4"/>
<path d="M30.0082 24.908V27.7684C30.0082 29.0061 29.0042 30.0103 27.7663 30.0103H20.233C18.9953 30.0103 17.9911 29.0063 17.9911 27.7684V24.908H0.0185547C0.237682 30.7446 2.5734 36.5164 7.02885 40.9726C16.4022 50.3446 31.5971 50.3446 40.9703 40.9726C45.4257 36.5166 47.7614 30.7446 47.9806 24.908H30.0082Z" fill="url(#paint3_linear_39_4365)"/>
<defs>
<linearGradient id="paint0_linear_39_4365" x1="5.2137" y1="23.9999" x2="48.8866" y2="23.9999" gradientUnits="userSpaceOnUse">
<stop stop-color="#FEE45A"/>
<stop offset="1" stop-color="#FEA613"/>
</linearGradient>
<linearGradient id="paint1_linear_39_4365" x1="43.7416" y1="23.9989" x2="2.24211" y2="23.9989" gradientUnits="userSpaceOnUse">
<stop stop-color="#FEE45A"/>
<stop offset="1" stop-color="#FEA613"/>
</linearGradient>
<linearGradient id="paint2_linear_39_4365" x1="18.5464" y1="25.1244" x2="28.9246" y2="25.1242" gradientUnits="userSpaceOnUse">
<stop stop-color="#FEE45A"/>
<stop offset="1" stop-color="#FEA613"/>
</linearGradient>
<linearGradient id="paint3_linear_39_4365" x1="23.9998" y1="31.0394" x2="23.9998" y2="51.869" gradientUnits="userSpaceOnUse">
<stop stop-color="#FEA613" stop-opacity="0"/>
<stop offset="1" stop-color="#E94444"/>
</linearGradient>
</defs>
</svg>
