<svg width="414" height="398" viewBox="0 0 414 398" fill="none" xmlns="http://www.w3.org/2000/svg">
<mask id="path-3-inside-1_39_4355" fill="white">
<path fill-rule="evenodd" clip-rule="evenodd" d="M210.706 287.381C289.852 287.381 354.013 223.22 354.013 144.073C354.013 64.9271 289.852 0.766357 210.706 0.766357C131.56 0.766357 67.3989 64.9271 67.3989 144.073C67.3989 223.22 131.56 287.381 210.706 287.381ZM169.455 65.9992C147.323 77.0282 132.683 102.542 135.362 125.412C136.142 132.066 136.089 132.175 130.391 135.374L124.632 138.607L129.28 142.755C133.697 146.697 133.795 147.002 131.27 148.849C129.807 149.916 127.692 150.791 126.567 150.791C125.276 150.791 126.46 153.148 129.793 157.211L135.06 163.632L131.3 165.059C129.233 165.845 126.955 166.487 126.236 166.487C125.519 166.487 125.64 168.043 126.507 169.943C127.747 172.659 131.331 174.515 143.262 178.618C166.878 186.74 200.916 208.76 206.374 219.446C207.931 222.497 209.82 224.993 210.57 224.993C211.318 224.993 212.975 222.978 214.249 220.516C217.643 213.959 222.153 210.165 242.002 197.16C253.959 189.327 264.106 183.928 272.714 180.817C279.785 178.263 287.363 175.511 289.552 174.702C294.788 172.769 298.504 166.487 294.413 166.487C293.385 166.487 291.325 165.597 289.837 164.509C287.238 162.612 287.318 162.318 291.849 157.163L296.567 151.794L291.894 149.83L287.22 147.867L291.916 143.027L296.613 138.185L291.192 135.407C285.774 132.63 285.771 132.623 286.087 124.229C286.504 113.14 284.294 102.284 279.778 93.2327C273.71 81.0736 259.851 68.6262 246.906 63.7089L242.997 62.2249L243.928 79.0387C244.747 93.8449 243.251 118.626 241.428 120.448C241.068 120.807 236.403 118.952 231.062 116.325C222.657 112.191 219.905 111.549 210.607 111.549C201.308 111.549 198.628 112.176 190.669 116.205C184.182 119.492 181.028 120.416 179.955 119.348C179.04 118.434 178.154 106.805 177.723 90.0349L177.009 62.2348L169.455 65.9992Z"/>
</mask>
<path fill-rule="evenodd" clip-rule="evenodd" d="M210.706 287.381C289.852 287.381 354.013 223.22 354.013 144.073C354.013 64.9271 289.852 0.766357 210.706 0.766357C131.56 0.766357 67.3989 64.9271 67.3989 144.073C67.3989 223.22 131.56 287.381 210.706 287.381ZM169.455 65.9992C147.323 77.0282 132.683 102.542 135.362 125.412C136.142 132.066 136.089 132.175 130.391 135.374L124.632 138.607L129.28 142.755C133.697 146.697 133.795 147.002 131.27 148.849C129.807 149.916 127.692 150.791 126.567 150.791C125.276 150.791 126.46 153.148 129.793 157.211L135.06 163.632L131.3 165.059C129.233 165.845 126.955 166.487 126.236 166.487C125.519 166.487 125.64 168.043 126.507 169.943C127.747 172.659 131.331 174.515 143.262 178.618C166.878 186.74 200.916 208.76 206.374 219.446C207.931 222.497 209.82 224.993 210.57 224.993C211.318 224.993 212.975 222.978 214.249 220.516C217.643 213.959 222.153 210.165 242.002 197.16C253.959 189.327 264.106 183.928 272.714 180.817C279.785 178.263 287.363 175.511 289.552 174.702C294.788 172.769 298.504 166.487 294.413 166.487C293.385 166.487 291.325 165.597 289.837 164.509C287.238 162.612 287.318 162.318 291.849 157.163L296.567 151.794L291.894 149.83L287.22 147.867L291.916 143.027L296.613 138.185L291.192 135.407C285.774 132.63 285.771 132.623 286.087 124.229C286.504 113.14 284.294 102.284 279.778 93.2327C273.71 81.0736 259.851 68.6262 246.906 63.7089L242.997 62.2249L243.928 79.0387C244.747 93.8449 243.251 118.626 241.428 120.448C241.068 120.807 236.403 118.952 231.062 116.325C222.657 112.191 219.905 111.549 210.607 111.549C201.308 111.549 198.628 112.176 190.669 116.205C184.182 119.492 181.028 120.416 179.955 119.348C179.04 118.434 178.154 106.805 177.723 90.0349L177.009 62.2348L169.455 65.9992Z" fill="#FFAD8D" fill-opacity="0.2"/>
<path fill-rule="evenodd" clip-rule="evenodd" d="M210.706 287.381C289.852 287.381 354.013 223.22 354.013 144.073C354.013 64.9271 289.852 0.766357 210.706 0.766357C131.56 0.766357 67.3989 64.9271 67.3989 144.073C67.3989 223.22 131.56 287.381 210.706 287.381ZM169.455 65.9992C147.323 77.0282 132.683 102.542 135.362 125.412C136.142 132.066 136.089 132.175 130.391 135.374L124.632 138.607L129.28 142.755C133.697 146.697 133.795 147.002 131.27 148.849C129.807 149.916 127.692 150.791 126.567 150.791C125.276 150.791 126.46 153.148 129.793 157.211L135.06 163.632L131.3 165.059C129.233 165.845 126.955 166.487 126.236 166.487C125.519 166.487 125.64 168.043 126.507 169.943C127.747 172.659 131.331 174.515 143.262 178.618C166.878 186.74 200.916 208.76 206.374 219.446C207.931 222.497 209.82 224.993 210.57 224.993C211.318 224.993 212.975 222.978 214.249 220.516C217.643 213.959 222.153 210.165 242.002 197.16C253.959 189.327 264.106 183.928 272.714 180.817C279.785 178.263 287.363 175.511 289.552 174.702C294.788 172.769 298.504 166.487 294.413 166.487C293.385 166.487 291.325 165.597 289.837 164.509C287.238 162.612 287.318 162.318 291.849 157.163L296.567 151.794L291.894 149.83L287.22 147.867L291.916 143.027L296.613 138.185L291.192 135.407C285.774 132.63 285.771 132.623 286.087 124.229C286.504 113.14 284.294 102.284 279.778 93.2327C273.71 81.0736 259.851 68.6262 246.906 63.7089L242.997 62.2249L243.928 79.0387C244.747 93.8449 243.251 118.626 241.428 120.448C241.068 120.807 236.403 118.952 231.062 116.325C222.657 112.191 219.905 111.549 210.607 111.549C201.308 111.549 198.628 112.176 190.669 116.205C184.182 119.492 181.028 120.416 179.955 119.348C179.04 118.434 178.154 106.805 177.723 90.0349L177.009 62.2348L169.455 65.9992Z" fill="url(#paint0_radial_39_4355)"/>
<path d="M135.362 125.412L130.396 125.994L130.396 125.994L135.362 125.412ZM169.455 65.9992L171.685 70.4743L171.685 70.4743L169.455 65.9992ZM130.391 135.374L132.839 139.734L132.839 139.734L130.391 135.374ZM124.632 138.607L122.184 134.247L116.078 137.675L121.303 142.338L124.632 138.607ZM129.28 142.755L125.951 146.486L125.951 146.486L129.28 142.755ZM131.27 148.849L134.217 152.888L134.221 152.885L131.27 148.849ZM129.793 157.211L133.659 154.04L133.659 154.039L129.793 157.211ZM135.06 163.632L136.834 168.307L143.336 165.839L138.926 160.461L135.06 163.632ZM131.3 165.059L129.526 160.384L129.522 160.386L131.3 165.059ZM126.507 169.943L121.958 172.019L121.959 172.02L126.507 169.943ZM143.262 178.618L144.888 173.89L144.888 173.89L143.262 178.618ZM206.374 219.446L210.828 217.173L210.827 217.172L206.374 219.446ZM214.249 220.516L218.69 222.815L218.69 222.815L214.249 220.516ZM242.002 197.16L239.263 192.977L239.262 192.978L242.002 197.16ZM272.714 180.817L271.015 176.114L271.015 176.114L272.714 180.817ZM289.552 174.702L287.82 170.012L287.819 170.012L289.552 174.702ZM289.837 164.509L292.786 160.472L292.786 160.472L289.837 164.509ZM291.849 157.163L295.605 160.465L295.605 160.464L291.849 157.163ZM296.567 151.794L300.323 155.094L304.909 149.875L298.504 147.184L296.567 151.794ZM291.894 149.83L289.957 154.44H289.957L291.894 149.83ZM287.22 147.867L283.631 144.385L278.532 149.64L285.283 152.477L287.22 147.867ZM291.916 143.027L295.505 146.509L295.505 146.508L291.916 143.027ZM296.613 138.185L300.202 141.666L304.906 136.817L298.894 133.735L296.613 138.185ZM291.192 135.407L288.912 139.856L288.912 139.856L291.192 135.407ZM286.087 124.229L281.09 124.041V124.041L286.087 124.229ZM279.778 93.2327L284.251 91.0002L284.251 91.0001L279.778 93.2327ZM246.906 63.7089L248.682 59.0348L248.681 59.0343L246.906 63.7089ZM242.997 62.2249L244.771 57.5503L237.579 54.8202L238.004 62.5014L242.997 62.2249ZM243.928 79.0387L248.92 78.7628L248.92 78.7622L243.928 79.0387ZM241.428 120.448L244.962 123.985L244.963 123.984L241.428 120.448ZM231.062 116.325L233.269 111.839L233.269 111.839L231.062 116.325ZM190.669 116.205L188.41 111.745L188.409 111.745L190.669 116.205ZM179.955 119.348L176.424 122.888L176.426 122.89L179.955 119.348ZM177.723 90.0349L172.724 90.1633L172.724 90.1635L177.723 90.0349ZM177.009 62.2348L182.007 62.1064L181.805 54.2579L174.778 57.7598L177.009 62.2348ZM349.013 144.073C349.013 220.458 287.091 282.381 210.706 282.381V292.381C292.614 292.381 359.013 225.981 359.013 144.073H349.013ZM210.706 5.76636C287.091 5.76636 349.013 67.6885 349.013 144.073H359.013C359.013 62.1657 292.614 -4.23364 210.706 -4.23364V5.76636ZM72.3989 144.073C72.3989 67.6885 134.321 5.76636 210.706 5.76636V-4.23364C128.798 -4.23364 62.3989 62.1657 62.3989 144.073H72.3989ZM210.706 282.381C134.321 282.381 72.3989 220.458 72.3989 144.073H62.3989C62.3989 225.981 128.798 292.381 210.706 292.381V282.381ZM140.328 124.83C137.917 104.253 151.254 80.6555 171.685 70.4743L167.225 61.524C143.391 73.4008 127.448 100.831 130.396 125.994L140.328 124.83ZM132.839 139.734C134.185 138.978 135.52 138.231 136.577 137.48C137.695 136.686 138.948 135.589 139.78 133.921C140.606 132.266 140.737 130.609 140.715 129.247C140.695 127.943 140.513 126.407 140.328 124.83L130.396 125.994C130.601 127.744 130.706 128.717 130.717 129.405C130.727 130.035 130.634 129.852 130.832 129.456C131.036 129.047 131.257 128.993 130.786 129.327C130.256 129.704 129.447 130.17 127.944 131.014L132.839 139.734ZM127.08 142.967L132.839 139.734L127.944 131.014L122.184 134.247L127.08 142.967ZM132.609 139.025L127.961 134.877L121.303 142.338L125.951 146.486L132.609 139.025ZM134.221 152.885C134.742 152.504 135.794 151.751 136.566 150.775C137.021 150.201 137.542 149.359 137.793 148.246C138.055 147.083 137.94 145.98 137.632 145.036C137.115 143.453 136.024 142.276 135.406 141.637C134.664 140.869 133.687 139.987 132.609 139.025L125.951 146.486C127.081 147.494 127.773 148.129 128.213 148.584C128.424 148.803 128.487 148.889 128.477 148.874C128.474 148.871 128.28 148.612 128.125 148.139C127.948 147.595 127.855 146.86 128.037 146.051C128.207 145.293 128.547 144.793 128.725 144.569C128.887 144.364 128.99 144.293 128.882 144.384C128.784 144.466 128.62 144.592 128.319 144.812L134.221 152.885ZM126.567 155.791C128.124 155.791 129.666 155.269 130.701 154.841C131.871 154.358 133.123 153.686 134.217 152.888L128.323 144.81C127.954 145.079 127.417 145.378 126.883 145.599C126.625 145.705 126.429 145.768 126.312 145.798C126.157 145.839 126.267 145.791 126.567 145.791V155.791ZM133.659 154.039C132.034 152.059 131.204 150.809 130.914 150.233C130.855 150.115 130.876 150.137 130.918 150.271C130.945 150.36 131.094 150.84 131.048 151.547C130.996 152.336 130.666 153.659 129.447 154.701C128.307 155.675 127.097 155.791 126.567 155.791V145.791C125.716 145.791 124.259 145.98 122.95 147.099C121.562 148.286 121.138 149.824 121.069 150.898C120.956 152.632 121.671 154.109 121.978 154.722C122.791 156.34 124.219 158.299 125.927 160.382L133.659 154.039ZM138.926 160.461L133.659 154.04L125.927 160.381L131.194 166.803L138.926 160.461ZM133.074 169.733L136.834 168.307L133.285 158.957L129.526 160.384L133.074 169.733ZM126.236 171.487C126.965 171.487 127.669 171.351 128.062 171.269C128.555 171.166 129.089 171.03 129.619 170.88C130.684 170.58 131.911 170.176 133.078 169.732L129.522 160.386C128.622 160.728 127.676 161.038 126.905 161.256C126.518 161.365 126.218 161.438 126.017 161.48C125.917 161.501 125.873 161.508 125.875 161.507C125.878 161.507 125.908 161.503 125.958 161.498C126.005 161.494 126.103 161.487 126.236 161.487V171.487ZM131.057 167.868C130.76 167.218 130.75 166.947 130.762 167.112C130.763 167.119 130.842 167.823 130.443 168.745C130.216 169.269 129.772 170.002 128.946 170.602C128.078 171.234 127.102 171.487 126.236 171.487V161.487C125.19 161.487 124.062 161.79 123.066 162.513C122.114 163.206 121.568 164.075 121.265 164.775C120.714 166.048 120.743 167.26 120.793 167.893C120.904 169.311 121.388 170.768 121.958 172.019L131.057 167.868ZM144.888 173.89C138.903 171.832 135.35 170.447 133.175 169.32C132.115 168.772 131.571 168.378 131.295 168.132C131.167 168.018 131.109 167.947 131.088 167.92C131.07 167.895 131.063 167.882 131.056 167.867L121.959 172.02C123.257 174.863 125.623 176.671 128.577 178.201C131.486 179.707 135.69 181.301 141.636 183.346L144.888 173.89ZM210.827 217.172C208.982 213.559 205.163 209.641 200.778 205.898C196.237 202.022 190.543 197.883 184.343 193.872C171.981 185.875 157.196 178.123 144.888 173.89L141.636 183.346C152.944 187.235 166.986 194.554 178.912 202.269C184.855 206.114 190.17 209.991 194.285 213.503C198.555 217.148 201.038 219.99 201.922 221.72L210.827 217.172ZM210.57 219.993C211.205 219.993 211.711 220.122 212.04 220.235C212.373 220.349 212.619 220.48 212.769 220.567C212.923 220.658 213.031 220.737 213.091 220.783C213.153 220.83 213.189 220.863 213.198 220.872C213.2 220.873 213.049 220.727 212.762 220.347C212.211 219.618 211.5 218.49 210.828 217.173L201.921 221.719C202.806 223.453 203.817 225.098 204.787 226.38C205.26 227.006 205.82 227.674 206.436 228.239C206.74 228.518 207.17 228.877 207.707 229.192C208.165 229.46 209.189 229.993 210.57 229.993V219.993ZM209.809 218.218C209.306 219.19 208.759 220.005 208.35 220.502C208.136 220.763 208.058 220.816 208.133 220.755C208.171 220.724 208.347 220.583 208.649 220.432C208.91 220.301 209.596 219.993 210.57 219.993V229.993C211.73 229.993 212.632 229.622 213.132 229.371C213.673 229.099 214.111 228.782 214.43 228.524C215.066 228.008 215.622 227.404 216.075 226.853C217 225.728 217.919 224.304 218.69 222.815L209.809 218.218ZM239.262 192.978C219.687 205.803 213.918 210.28 209.809 218.218L218.69 222.815C221.369 217.639 224.619 214.527 244.743 201.342L239.262 192.978ZM271.015 176.114C261.897 179.41 251.384 185.036 239.263 192.977L244.742 201.342C256.533 193.618 266.316 188.446 274.413 185.519L271.015 176.114ZM287.819 170.012C285.65 170.814 278.09 173.558 271.015 176.114L274.413 185.519C281.479 182.967 289.075 180.209 291.285 179.392L287.819 170.012ZM294.413 171.487C294.342 171.487 293.709 171.481 292.936 170.996C292.036 170.431 291.458 169.537 291.248 168.64C291.07 167.881 291.203 167.358 291.231 167.257C291.267 167.125 291.28 167.149 291.177 167.323C290.67 168.18 289.324 169.457 287.82 170.012L291.285 179.393C295.016 178.014 298.146 175.183 299.783 172.416C300.496 171.212 301.585 168.922 300.984 166.358C300.629 164.841 299.71 163.442 298.252 162.526C296.919 161.689 295.507 161.487 294.413 161.487V171.487ZM286.887 168.547C287.96 169.33 289.176 170.004 290.314 170.496C291.28 170.913 292.833 171.487 294.413 171.487V161.487C294.792 161.487 294.96 161.555 294.814 161.514C294.718 161.487 294.535 161.426 294.281 161.316C293.76 161.091 293.202 160.776 292.786 160.472L286.887 168.547ZM288.094 153.862C286.985 155.124 286.02 156.231 285.301 157.162C284.669 157.98 283.76 159.231 283.347 160.737C283.108 161.61 283.011 162.641 283.246 163.748C283.477 164.84 283.967 165.697 284.448 166.325C285.253 167.377 286.366 168.166 286.887 168.547L292.786 160.472C292.47 160.241 292.306 160.115 292.208 160.033C292.104 159.945 292.218 160.025 292.388 160.246C292.582 160.5 292.881 160.981 293.028 161.672C293.178 162.379 293.1 162.983 292.992 163.379C292.897 163.725 292.786 163.889 292.831 163.813C292.869 163.748 292.978 163.582 293.215 163.275C293.704 162.642 294.448 161.78 295.605 160.465L288.094 153.862ZM292.811 148.494L288.093 153.863L295.605 160.464L300.323 155.094L292.811 148.494ZM289.957 154.44L294.631 156.404L298.504 147.184L293.83 145.221L289.957 154.44ZM285.283 152.477L289.957 154.44L293.83 145.221L289.156 143.257L285.283 152.477ZM288.328 139.545L283.631 144.385L290.808 151.349L295.505 146.509L288.328 139.545ZM293.024 134.704L288.328 139.545L295.505 146.508L300.202 141.666L293.024 134.704ZM288.912 139.856L294.333 142.635L298.894 133.735L293.473 130.957L288.912 139.856ZM281.09 124.041C281.014 126.066 280.945 127.849 280.992 129.292C281.04 130.724 281.207 132.393 281.941 134.001C282.749 135.77 283.987 136.931 285.225 137.785C286.313 138.535 287.671 139.221 288.912 139.856L293.473 130.957C292.004 130.204 291.33 129.848 290.903 129.553C290.627 129.362 290.868 129.476 291.038 129.847C291.133 130.057 291.02 129.977 290.987 128.961C290.954 127.955 291.002 126.589 291.083 124.417L281.09 124.041ZM275.304 95.4653C279.41 103.695 281.479 113.707 281.09 124.041L291.083 124.417C291.529 112.574 289.178 100.873 284.251 91.0002L275.304 95.4653ZM245.131 68.383C256.926 72.8637 269.808 84.4535 275.304 95.4654L284.251 91.0001C277.611 77.6937 262.776 64.3887 248.682 59.0348L245.131 68.383ZM241.222 66.8994L245.132 68.3835L248.681 59.0343L244.771 57.5503L241.222 66.8994ZM248.92 78.7622L247.989 61.9483L238.004 62.5014L238.936 79.3153L248.92 78.7622ZM244.963 123.984C245.846 123.102 246.262 122.079 246.426 121.657C246.648 121.087 246.817 120.486 246.952 119.932C247.223 118.812 247.455 117.446 247.657 115.967C248.064 112.984 248.406 109.116 248.659 104.913C249.166 96.5165 249.343 86.4166 248.92 78.7628L238.936 79.3147C239.331 86.4671 239.17 96.1605 238.678 104.311C238.432 108.383 238.109 111.976 237.749 114.615C237.567 115.947 237.389 116.931 237.234 117.574C237.196 117.726 237.165 117.842 237.14 117.926C237.114 118.012 237.101 118.044 237.105 118.033C237.107 118.03 237.145 117.93 237.232 117.774C237.307 117.639 237.511 117.294 237.893 116.912L244.963 123.984ZM228.855 120.812C231.609 122.167 234.234 123.345 236.265 124.153C237.262 124.549 238.222 124.899 239.025 125.13C239.402 125.238 239.926 125.374 240.482 125.443C240.746 125.476 241.23 125.523 241.809 125.465C242.206 125.425 243.692 125.253 244.962 123.985L237.895 116.91C239.119 115.687 240.527 115.543 240.814 115.514C241.282 115.468 241.624 115.508 241.715 115.52C241.926 115.546 241.985 115.576 241.79 115.52C241.451 115.422 240.842 115.211 239.961 114.86C238.234 114.174 235.856 113.111 233.269 111.839L228.855 120.812ZM210.607 116.549C215.199 116.549 217.725 116.717 220.032 117.256C222.342 117.795 224.7 118.768 228.855 120.812L233.269 111.839C229.019 109.748 225.798 108.333 222.306 107.518C218.811 106.702 215.312 106.549 210.607 106.549V116.549ZM192.927 120.666C196.848 118.681 199.062 117.751 201.272 117.235C203.5 116.715 206.002 116.549 210.607 116.549V106.549C205.913 106.549 202.425 106.697 198.998 107.497C195.554 108.301 192.448 109.7 188.41 111.745L192.927 120.666ZM176.426 122.89C177.913 124.37 179.74 124.739 181.058 124.768C182.34 124.797 183.598 124.527 184.689 124.208C186.889 123.562 189.643 122.33 192.928 120.666L188.409 111.745C185.208 113.367 183.141 114.24 181.875 114.612C181.232 114.8 181.096 114.767 181.282 114.771C181.504 114.776 182.534 114.859 183.484 115.805L176.426 122.89ZM172.724 90.1635C172.941 98.5933 173.273 105.784 173.672 111.017C173.87 113.621 174.091 115.819 174.335 117.47C174.455 118.284 174.596 119.075 174.772 119.759C174.859 120.097 174.981 120.514 175.155 120.941C175.279 121.247 175.641 122.106 176.424 122.888L183.486 115.807C184.155 116.475 184.403 117.136 184.414 117.163C184.474 117.311 184.482 117.369 184.457 117.268C184.407 117.076 184.326 116.678 184.227 116.01C184.034 114.7 183.835 112.772 183.643 110.258C183.262 105.255 182.936 98.2462 182.721 89.9063L172.724 90.1635ZM172.01 62.3633L172.724 90.1633L182.721 89.9065L182.007 62.1064L172.01 62.3633ZM171.685 70.4743L179.239 66.7099L174.778 57.7598L167.225 61.5241L171.685 70.4743Z" fill="url(#paint1_linear_39_4355)" style="mix-blend-mode:overlay" mask="url(#path-3-inside-1_39_4355)"/>
<g style="mix-blend-mode:plus-lighter" filter="url(#filter0_f_39_4355)">
<ellipse cx="210.449" cy="236.065" rx="124.492" ry="51.3159" fill="#FFC247"/>
</g>
<path d="M135.656 125.839C132.977 102.969 147.617 77.4547 169.749 66.4257L177.302 62.6614L178.017 90.4614C178.448 107.231 179.334 118.861 180.249 119.774C181.322 120.843 184.476 119.918 190.963 116.632C198.922 112.602 201.602 111.976 210.901 111.976C220.198 111.976 222.951 112.618 231.356 116.752C236.697 119.379 241.362 121.234 241.722 120.874C243.545 119.052 245.04 94.2714 244.222 79.4653L243.291 62.6514L247.2 64.1354C260.145 69.0527 274.003 81.5001 280.071 93.6593C284.588 102.71 286.798 113.567 286.381 124.656C286.065 133.049 286.068 133.056 291.486 135.833L296.907 138.611L292.21 143.453L287.514 148.293L292.188 150.257L296.861 152.22L292.143 157.59C287.612 162.744 287.532 163.038 290.131 164.936C291.619 166.023 293.679 166.914 294.707 166.914C298.798 166.914 295.082 173.195 289.846 175.129C287.656 175.938 280.079 178.689 273.008 181.243C264.4 184.354 254.252 189.754 242.296 197.586C222.447 210.592 217.937 214.386 214.543 220.943C213.269 223.404 211.612 225.419 210.864 225.419C210.114 225.419 208.225 222.923 206.668 219.873C201.21 209.186 167.172 187.167 143.556 179.044C131.625 174.942 128.041 173.085 126.801 170.37C125.934 168.469 125.813 166.914 126.53 166.914C127.249 166.914 129.527 166.272 131.594 165.485L135.354 164.058L130.087 157.637C126.754 153.575 125.57 151.217 126.861 151.217C127.986 151.217 130.101 150.342 131.564 149.275C134.089 147.429 133.991 147.123 129.574 143.182L124.926 139.034L130.685 135.8C136.383 132.601 136.436 132.493 135.656 125.839Z" fill="#1F1A03"/>
<defs>
<filter id="filter0_f_39_4355" x="-24.2797" y="74.5126" width="469.457" height="323.104" filterUnits="userSpaceOnUse" color-interpolation-filters="sRGB">
<feFlood flood-opacity="0" result="BackgroundImageFix"/>
<feBlend mode="normal" in="SourceGraphic" in2="BackgroundImageFix" result="shape"/>
<feGaussianBlur stdDeviation="55.1181" result="effect1_foregroundBlur_39_4355"/>
</filter>
<radialGradient id="paint0_radial_39_4355" cx="0" cy="0" r="1" gradientUnits="userSpaceOnUse" gradientTransform="translate(186.454 0.766357) rotate(66.1359) scale(423.704 397.155)">
<stop stop-color="#FFF1D5" stop-opacity="0.16"/>
<stop offset="0.340574" stop-color="#FFF1D5" stop-opacity="0"/>
<stop offset="1" stop-color="#FFB720"/>
</radialGradient>
<linearGradient id="paint1_linear_39_4355" x1="210.706" y1="0.766357" x2="210.706" y2="287.381" gradientUnits="userSpaceOnUse">
<stop stop-color="white" stop-opacity="0.3"/>
<stop offset="1" stop-color="white" stop-opacity="0.7"/>
</linearGradient>
</defs>
</svg>
