<svg width="288" height="288" viewBox="0 0 288 288" fill="none" xmlns="http://www.w3.org/2000/svg">
<mask id="path-1-inside-1_39_4358" fill="white">
<path fill-rule="evenodd" clip-rule="evenodd" d="M143.706 287.381C222.852 287.381 287.013 223.22 287.013 144.073C287.013 64.9271 222.852 0.766357 143.706 0.766357C64.5597 0.766357 0.398926 64.9271 0.398926 144.073C0.398926 223.22 64.5597 287.381 143.706 287.381ZM102.455 65.9992C80.3227 77.0282 65.6826 102.542 68.3624 125.412C69.1423 132.066 69.0895 132.175 63.3914 135.374L57.632 138.607L62.2801 142.755C66.6968 146.697 66.7954 147.002 64.2699 148.849C62.8072 149.916 60.6917 150.791 59.5675 150.791C58.2762 150.791 59.4604 153.148 62.7929 157.211L68.0596 163.632L64.2999 165.059C62.233 165.845 59.9546 166.487 59.2361 166.487C58.519 166.487 58.6404 168.043 59.5075 169.943C60.7474 172.659 64.3313 174.515 76.2617 178.618C99.878 186.74 133.916 208.76 139.374 219.446C140.931 222.497 142.82 224.993 143.57 224.993C144.318 224.993 145.975 222.978 147.249 220.516C150.643 213.959 155.153 210.165 175.002 197.16C186.959 189.327 197.106 183.928 205.714 180.817C212.785 178.263 220.363 175.511 222.552 174.702C227.788 172.769 231.504 166.487 227.413 166.487C226.385 166.487 224.325 165.597 222.837 164.509C220.238 162.612 220.318 162.318 224.849 157.163L229.567 151.794L224.894 149.83L220.22 147.867L224.916 143.027L229.613 138.185L224.192 135.407C218.774 132.63 218.771 132.623 219.087 124.229C219.504 113.14 217.294 102.284 212.778 93.2327C206.71 81.0736 192.851 68.6262 179.906 63.7089L175.997 62.2249L176.928 79.0387C177.747 93.8449 176.251 118.626 174.428 120.448C174.068 120.807 169.403 118.952 164.062 116.325C155.657 112.191 152.905 111.549 143.607 111.549C134.308 111.549 131.628 112.176 123.669 116.205C117.182 119.492 114.028 120.416 112.955 119.348C112.04 118.434 111.154 106.805 110.723 90.0349L110.009 62.2348L102.455 65.9992Z"/>
</mask>
<path fill-rule="evenodd" clip-rule="evenodd" d="M143.706 287.381C222.852 287.381 287.013 223.22 287.013 144.073C287.013 64.9271 222.852 0.766357 143.706 0.766357C64.5597 0.766357 0.398926 64.9271 0.398926 144.073C0.398926 223.22 64.5597 287.381 143.706 287.381ZM102.455 65.9992C80.3227 77.0282 65.6826 102.542 68.3624 125.412C69.1423 132.066 69.0895 132.175 63.3914 135.374L57.632 138.607L62.2801 142.755C66.6968 146.697 66.7954 147.002 64.2699 148.849C62.8072 149.916 60.6917 150.791 59.5675 150.791C58.2762 150.791 59.4604 153.148 62.7929 157.211L68.0596 163.632L64.2999 165.059C62.233 165.845 59.9546 166.487 59.2361 166.487C58.519 166.487 58.6404 168.043 59.5075 169.943C60.7474 172.659 64.3313 174.515 76.2617 178.618C99.878 186.74 133.916 208.76 139.374 219.446C140.931 222.497 142.82 224.993 143.57 224.993C144.318 224.993 145.975 222.978 147.249 220.516C150.643 213.959 155.153 210.165 175.002 197.16C186.959 189.327 197.106 183.928 205.714 180.817C212.785 178.263 220.363 175.511 222.552 174.702C227.788 172.769 231.504 166.487 227.413 166.487C226.385 166.487 224.325 165.597 222.837 164.509C220.238 162.612 220.318 162.318 224.849 157.163L229.567 151.794L224.894 149.83L220.22 147.867L224.916 143.027L229.613 138.185L224.192 135.407C218.774 132.63 218.771 132.623 219.087 124.229C219.504 113.14 217.294 102.284 212.778 93.2327C206.71 81.0736 192.851 68.6262 179.906 63.7089L175.997 62.2249L176.928 79.0387C177.747 93.8449 176.251 118.626 174.428 120.448C174.068 120.807 169.403 118.952 164.062 116.325C155.657 112.191 152.905 111.549 143.607 111.549C134.308 111.549 131.628 112.176 123.669 116.205C117.182 119.492 114.028 120.416 112.955 119.348C112.04 118.434 111.154 106.805 110.723 90.0349L110.009 62.2348L102.455 65.9992Z" fill="#FFAD8D" fill-opacity="0.2"/>
<path fill-rule="evenodd" clip-rule="evenodd" d="M143.706 287.381C222.852 287.381 287.013 223.22 287.013 144.073C287.013 64.9271 222.852 0.766357 143.706 0.766357C64.5597 0.766357 0.398926 64.9271 0.398926 144.073C0.398926 223.22 64.5597 287.381 143.706 287.381ZM102.455 65.9992C80.3227 77.0282 65.6826 102.542 68.3624 125.412C69.1423 132.066 69.0895 132.175 63.3914 135.374L57.632 138.607L62.2801 142.755C66.6968 146.697 66.7954 147.002 64.2699 148.849C62.8072 149.916 60.6917 150.791 59.5675 150.791C58.2762 150.791 59.4604 153.148 62.7929 157.211L68.0596 163.632L64.2999 165.059C62.233 165.845 59.9546 166.487 59.2361 166.487C58.519 166.487 58.6404 168.043 59.5075 169.943C60.7474 172.659 64.3313 174.515 76.2617 178.618C99.878 186.74 133.916 208.76 139.374 219.446C140.931 222.497 142.82 224.993 143.57 224.993C144.318 224.993 145.975 222.978 147.249 220.516C150.643 213.959 155.153 210.165 175.002 197.16C186.959 189.327 197.106 183.928 205.714 180.817C212.785 178.263 220.363 175.511 222.552 174.702C227.788 172.769 231.504 166.487 227.413 166.487C226.385 166.487 224.325 165.597 222.837 164.509C220.238 162.612 220.318 162.318 224.849 157.163L229.567 151.794L224.894 149.83L220.22 147.867L224.916 143.027L229.613 138.185L224.192 135.407C218.774 132.63 218.771 132.623 219.087 124.229C219.504 113.14 217.294 102.284 212.778 93.2327C206.71 81.0736 192.851 68.6262 179.906 63.7089L175.997 62.2249L176.928 79.0387C177.747 93.8449 176.251 118.626 174.428 120.448C174.068 120.807 169.403 118.952 164.062 116.325C155.657 112.191 152.905 111.549 143.607 111.549C134.308 111.549 131.628 112.176 123.669 116.205C117.182 119.492 114.028 120.416 112.955 119.348C112.04 118.434 111.154 106.805 110.723 90.0349L110.009 62.2348L102.455 65.9992Z" fill="url(#paint0_radial_39_4358)"/>
<path d="M68.3624 125.412L63.3964 125.994L63.3964 125.994L68.3624 125.412ZM102.455 65.9992L104.685 70.4743L104.685 70.4743L102.455 65.9992ZM63.3914 135.374L65.8392 139.734L65.8393 139.734L63.3914 135.374ZM57.632 138.607L55.1842 134.247L49.0784 137.675L54.3027 142.338L57.632 138.607ZM62.2801 142.755L58.9509 146.486L58.9511 146.486L62.2801 142.755ZM64.2699 148.849L67.2172 152.888L67.221 152.885L64.2699 148.849ZM62.7929 157.211L66.6589 154.04L66.6587 154.039L62.7929 157.211ZM68.0596 163.632L69.8338 168.307L76.3361 165.839L71.9256 160.461L68.0596 163.632ZM64.2999 165.059L62.5257 160.384L62.5222 160.386L64.2999 165.059ZM59.5075 169.943L54.9585 172.019L54.9592 172.02L59.5075 169.943ZM76.2617 178.618L77.8878 173.89L77.8876 173.89L76.2617 178.618ZM139.374 219.446L143.828 217.173L143.827 217.172L139.374 219.446ZM147.249 220.516L151.69 222.815L151.69 222.815L147.249 220.516ZM175.002 197.16L172.263 192.977L172.262 192.978L175.002 197.16ZM205.714 180.817L204.015 176.114L204.015 176.114L205.714 180.817ZM222.552 174.702L220.82 170.012L220.819 170.012L222.552 174.702ZM222.837 164.509L225.786 160.472L225.786 160.472L222.837 164.509ZM224.849 157.163L228.605 160.465L228.605 160.464L224.849 157.163ZM229.567 151.794L233.323 155.094L237.909 149.875L231.504 147.184L229.567 151.794ZM224.894 149.83L222.957 154.44H222.957L224.894 149.83ZM220.22 147.867L216.631 144.385L211.532 149.64L218.283 152.477L220.22 147.867ZM224.916 143.027L228.505 146.509L228.505 146.508L224.916 143.027ZM229.613 138.185L233.202 141.666L237.906 136.817L231.894 133.735L229.613 138.185ZM224.192 135.407L221.912 139.856L221.912 139.856L224.192 135.407ZM219.087 124.229L214.09 124.041V124.041L219.087 124.229ZM212.778 93.2327L217.251 91.0002L217.251 91.0001L212.778 93.2327ZM179.906 63.7089L181.682 59.0348L181.681 59.0343L179.906 63.7089ZM175.997 62.2249L177.771 57.5503L170.579 54.8202L171.004 62.5014L175.997 62.2249ZM176.928 79.0387L181.92 78.7628L181.92 78.7622L176.928 79.0387ZM174.428 120.448L177.962 123.985L177.963 123.984L174.428 120.448ZM164.062 116.325L166.269 111.839L166.269 111.839L164.062 116.325ZM123.669 116.205L121.41 111.745L121.409 111.745L123.669 116.205ZM112.955 119.348L109.424 122.888L109.426 122.89L112.955 119.348ZM110.723 90.0349L105.724 90.1633L105.724 90.1635L110.723 90.0349ZM110.009 62.2348L115.007 62.1064L114.805 54.2579L107.778 57.7598L110.009 62.2348ZM282.013 144.073C282.013 220.458 220.091 282.381 143.706 282.381V292.381C225.614 292.381 292.013 225.981 292.013 144.073H282.013ZM143.706 5.76636C220.091 5.76636 282.013 67.6885 282.013 144.073H292.013C292.013 62.1657 225.614 -4.23364 143.706 -4.23364V5.76636ZM5.39893 144.073C5.39893 67.6885 67.3211 5.76636 143.706 5.76636V-4.23364C61.7983 -4.23364 -4.60107 62.1657 -4.60107 144.073H5.39893ZM143.706 282.381C67.3211 282.381 5.39893 220.458 5.39893 144.073H-4.60107C-4.60107 225.981 61.7983 292.381 143.706 292.381V282.381ZM73.3284 124.83C70.9173 104.253 84.254 80.6555 104.685 70.4743L100.225 61.524C76.3914 73.4008 60.448 100.831 63.3964 125.994L73.3284 124.83ZM65.8393 139.734C67.1851 138.978 68.5197 138.231 69.5771 137.48C70.6947 136.686 71.9479 135.589 72.7803 133.921C73.6058 132.266 73.7368 130.609 73.7154 129.247C73.6948 127.943 73.5133 126.407 73.3284 124.83L63.3964 125.994C63.6015 127.744 63.7058 128.717 63.7166 129.405C63.7265 130.035 63.6345 129.852 63.832 129.456C64.0364 129.047 64.2568 128.993 63.7862 129.327C63.2556 129.704 62.4468 130.17 60.9435 131.014L65.8393 139.734ZM60.0797 142.967L65.8392 139.734L60.9437 131.014L55.1842 134.247L60.0797 142.967ZM65.6093 139.025L60.9612 134.877L54.3027 142.338L58.9509 146.486L65.6093 139.025ZM67.221 152.885C67.7418 152.504 68.7938 151.751 69.5663 150.775C70.0207 150.201 70.5424 149.359 70.7928 148.246C71.0546 147.083 70.9396 145.98 70.6316 145.036C70.1148 143.453 69.0236 142.276 68.4057 141.637C67.6637 140.869 66.6875 139.987 65.6091 139.025L58.9511 146.486C60.0811 147.494 60.7735 148.129 61.2132 148.584C61.4244 148.803 61.4869 148.889 61.4765 148.874C61.4743 148.871 61.2796 148.612 61.1251 148.139C60.9476 147.595 60.8547 146.86 61.0367 146.051C61.2072 145.293 61.5473 144.793 61.7248 144.569C61.8873 144.364 61.9905 144.293 61.8821 144.384C61.784 144.466 61.6197 144.592 61.3189 144.812L67.221 152.885ZM59.5675 155.791C61.1242 155.791 62.6659 155.269 63.701 154.841C64.871 154.358 66.1232 153.686 67.2172 152.888L61.3226 144.81C60.9539 145.079 60.417 145.378 59.8825 145.599C59.6251 145.705 59.4289 145.768 59.3118 145.798C59.1572 145.839 59.2666 145.791 59.5675 145.791V155.791ZM66.6587 154.039C65.0343 152.059 64.2035 150.809 63.9141 150.233C63.8548 150.115 63.8762 150.137 63.9179 150.271C63.9453 150.36 64.0935 150.84 64.0475 151.547C63.9962 152.336 63.666 153.659 62.4474 154.701C61.3075 155.675 60.0966 155.791 59.5675 155.791V145.791C58.7155 145.791 57.2592 145.98 55.9499 147.099C54.5619 148.286 54.1384 149.824 54.0686 150.898C53.9558 152.632 54.6706 154.109 54.9784 154.722C55.7914 156.34 57.219 158.299 58.9271 160.382L66.6587 154.039ZM71.9256 160.461L66.6589 154.04L58.9269 160.381L64.1936 166.803L71.9256 160.461ZM66.0741 169.733L69.8338 168.307L66.2853 158.957L62.5257 160.384L66.0741 169.733ZM59.2361 171.487C59.9647 171.487 60.669 171.351 61.0624 171.269C61.5551 171.166 62.0886 171.03 62.6194 170.88C63.684 170.58 64.9106 170.176 66.0776 169.732L62.5222 160.386C61.6223 160.728 60.6762 161.038 59.9052 161.256C59.5183 161.365 59.2183 161.438 59.0172 161.48C58.9169 161.501 58.8729 161.508 58.8755 161.507C58.8784 161.507 58.9076 161.503 58.9583 161.498C59.0054 161.494 59.1026 161.487 59.2361 161.487V171.487ZM64.0565 167.868C63.7598 167.218 63.7495 166.947 63.7625 167.112C63.763 167.119 63.842 167.823 63.4432 168.745C63.2165 169.269 62.7717 170.002 61.9463 170.602C61.0777 171.234 60.1025 171.487 59.2361 171.487V161.487C58.1904 161.487 57.0621 161.79 56.0664 162.513C55.1137 163.206 54.5675 164.075 54.2649 164.775C53.7143 166.048 53.7434 167.26 53.793 167.893C53.9042 169.311 54.3881 170.768 54.9585 172.019L64.0565 167.868ZM77.8876 173.89C71.9033 171.832 68.35 170.447 66.1747 169.32C65.1151 168.772 64.5708 168.378 64.2945 168.132C64.1666 168.018 64.1091 167.947 64.0882 167.92C64.0698 167.895 64.0629 167.882 64.0558 167.867L54.9592 172.02C56.2571 174.863 58.6227 176.671 61.5766 178.201C64.4859 179.707 68.6897 181.301 74.6357 183.346L77.8876 173.89ZM143.827 217.172C141.982 213.559 138.163 209.641 133.778 205.898C129.237 202.022 123.543 197.883 117.343 193.872C104.981 185.875 90.1957 178.123 77.8878 173.89L74.6355 183.346C85.944 187.235 99.9864 194.554 111.912 202.269C117.855 206.114 123.17 209.991 127.285 213.503C131.555 217.148 134.038 219.99 134.922 221.72L143.827 217.172ZM143.57 219.993C144.205 219.993 144.711 220.122 145.04 220.235C145.373 220.349 145.619 220.48 145.769 220.567C145.923 220.658 146.031 220.737 146.091 220.783C146.153 220.83 146.189 220.863 146.198 220.872C146.2 220.873 146.049 220.727 145.762 220.347C145.211 219.618 144.5 218.49 143.828 217.173L134.921 221.719C135.806 223.453 136.817 225.098 137.787 226.38C138.26 227.006 138.82 227.674 139.436 228.239C139.74 228.518 140.17 228.877 140.707 229.192C141.165 229.46 142.189 229.993 143.57 229.993V219.993ZM142.809 218.218C142.306 219.19 141.759 220.005 141.35 220.502C141.136 220.763 141.058 220.816 141.133 220.755C141.171 220.724 141.347 220.583 141.649 220.432C141.91 220.301 142.596 219.993 143.57 219.993V229.993C144.73 229.993 145.632 229.622 146.132 229.371C146.673 229.099 147.111 228.782 147.43 228.524C148.066 228.008 148.622 227.404 149.075 226.853C150 225.728 150.919 224.304 151.69 222.815L142.809 218.218ZM172.262 192.978C152.687 205.803 146.918 210.28 142.809 218.218L151.69 222.815C154.369 217.639 157.619 214.527 177.743 201.342L172.262 192.978ZM204.015 176.114C194.897 179.41 184.384 185.036 172.263 192.977L177.742 201.342C189.533 193.618 199.316 188.446 207.413 185.519L204.015 176.114ZM220.819 170.012C218.65 170.814 211.09 173.558 204.015 176.114L207.413 185.519C214.479 182.967 222.075 180.209 224.285 179.392L220.819 170.012ZM227.413 171.487C227.342 171.487 226.709 171.481 225.936 170.996C225.036 170.431 224.458 169.537 224.248 168.64C224.07 167.881 224.203 167.358 224.231 167.257C224.267 167.125 224.28 167.149 224.177 167.323C223.67 168.18 222.324 169.457 220.82 170.012L224.285 179.393C228.016 178.014 231.146 175.183 232.783 172.416C233.496 171.212 234.585 168.922 233.984 166.358C233.629 164.841 232.71 163.442 231.252 162.526C229.919 161.689 228.507 161.487 227.413 161.487V171.487ZM219.887 168.547C220.96 169.33 222.176 170.004 223.314 170.496C224.28 170.913 225.833 171.487 227.413 171.487V161.487C227.792 161.487 227.96 161.555 227.814 161.514C227.718 161.487 227.535 161.426 227.281 161.316C226.76 161.091 226.202 160.776 225.786 160.472L219.887 168.547ZM221.094 153.862C219.985 155.124 219.02 156.231 218.301 157.162C217.669 157.98 216.76 159.231 216.347 160.737C216.108 161.61 216.011 162.641 216.246 163.748C216.477 164.84 216.967 165.697 217.448 166.325C218.253 167.377 219.366 168.166 219.887 168.547L225.786 160.472C225.47 160.241 225.306 160.115 225.208 160.033C225.104 159.945 225.218 160.025 225.388 160.246C225.582 160.5 225.881 160.981 226.028 161.672C226.178 162.379 226.1 162.983 225.992 163.379C225.897 163.725 225.786 163.889 225.831 163.813C225.869 163.748 225.978 163.582 226.215 163.275C226.704 162.642 227.448 161.78 228.605 160.465L221.094 153.862ZM225.811 148.494L221.093 153.863L228.605 160.464L233.323 155.094L225.811 148.494ZM222.957 154.44L227.631 156.404L231.504 147.184L226.83 145.221L222.957 154.44ZM218.283 152.477L222.957 154.44L226.83 145.221L222.156 143.257L218.283 152.477ZM221.328 139.545L216.631 144.385L223.808 151.349L228.505 146.509L221.328 139.545ZM226.024 134.704L221.328 139.545L228.505 146.508L233.202 141.666L226.024 134.704ZM221.912 139.856L227.333 142.635L231.894 133.735L226.473 130.957L221.912 139.856ZM214.09 124.041C214.014 126.066 213.945 127.849 213.992 129.292C214.04 130.724 214.207 132.393 214.941 134.001C215.749 135.77 216.987 136.931 218.225 137.785C219.313 138.535 220.671 139.221 221.912 139.856L226.473 130.957C225.004 130.204 224.33 129.848 223.903 129.553C223.627 129.362 223.868 129.476 224.038 129.847C224.133 130.057 224.02 129.977 223.987 128.961C223.954 127.955 224.002 126.589 224.083 124.417L214.09 124.041ZM208.304 95.4653C212.41 103.695 214.479 113.707 214.09 124.041L224.083 124.417C224.529 112.574 222.178 100.873 217.251 91.0002L208.304 95.4653ZM178.131 68.383C189.926 72.8637 202.808 84.4535 208.304 95.4654L217.251 91.0001C210.611 77.6937 195.776 64.3887 181.682 59.0348L178.131 68.383ZM174.222 66.8994L178.132 68.3835L181.681 59.0343L177.771 57.5503L174.222 66.8994ZM181.92 78.7622L180.989 61.9483L171.004 62.5014L171.936 79.3153L181.92 78.7622ZM177.963 123.984C178.846 123.102 179.262 122.079 179.426 121.657C179.648 121.087 179.817 120.486 179.952 119.932C180.223 118.812 180.455 117.446 180.657 115.967C181.064 112.984 181.406 109.116 181.659 104.913C182.166 96.5165 182.343 86.4166 181.92 78.7628L171.936 79.3147C172.331 86.4671 172.17 96.1605 171.678 104.311C171.432 108.383 171.109 111.976 170.749 114.615C170.567 115.947 170.389 116.931 170.234 117.574C170.196 117.726 170.165 117.842 170.14 117.926C170.114 118.012 170.101 118.044 170.105 118.033C170.107 118.03 170.145 117.93 170.232 117.774C170.307 117.639 170.511 117.294 170.893 116.912L177.963 123.984ZM161.855 120.812C164.609 122.167 167.234 123.345 169.265 124.153C170.262 124.549 171.222 124.899 172.025 125.13C172.402 125.238 172.926 125.374 173.482 125.443C173.746 125.476 174.23 125.523 174.809 125.465C175.206 125.425 176.692 125.253 177.962 123.985L170.895 116.91C172.119 115.687 173.527 115.543 173.814 115.514C174.282 115.468 174.624 115.508 174.715 115.52C174.926 115.546 174.985 115.576 174.79 115.52C174.451 115.422 173.842 115.211 172.961 114.86C171.234 114.174 168.856 113.111 166.269 111.839L161.855 120.812ZM143.607 116.549C148.199 116.549 150.725 116.717 153.032 117.256C155.342 117.795 157.7 118.768 161.855 120.812L166.269 111.839C162.019 109.748 158.798 108.333 155.306 107.518C151.811 106.702 148.312 106.549 143.607 106.549V116.549ZM125.927 120.666C129.848 118.681 132.062 117.751 134.272 117.235C136.5 116.715 139.002 116.549 143.607 116.549V106.549C138.913 106.549 135.425 106.697 131.998 107.497C128.554 108.301 125.448 109.7 121.41 111.745L125.927 120.666ZM109.426 122.89C110.913 124.37 112.74 124.739 114.058 124.768C115.34 124.797 116.598 124.527 117.689 124.208C119.889 123.562 122.643 122.33 125.928 120.666L121.409 111.745C118.208 113.367 116.141 114.24 114.875 114.612C114.232 114.8 114.096 114.767 114.282 114.771C114.504 114.776 115.534 114.859 116.484 115.805L109.426 122.89ZM105.724 90.1635C105.941 98.5933 106.273 105.784 106.672 111.017C106.87 113.621 107.091 115.819 107.335 117.47C107.455 118.284 107.596 119.075 107.772 119.759C107.859 120.097 107.981 120.514 108.155 120.941C108.279 121.247 108.641 122.106 109.424 122.888L116.486 115.807C117.155 116.475 117.403 117.136 117.414 117.163C117.474 117.311 117.482 117.369 117.457 117.268C117.407 117.076 117.326 116.678 117.227 116.01C117.034 114.7 116.835 112.772 116.643 110.258C116.262 105.255 115.936 98.2462 115.721 89.9063L105.724 90.1635ZM105.01 62.3633L105.724 90.1633L115.721 89.9065L115.007 62.1064L105.01 62.3633ZM104.685 70.4743L112.239 66.7099L107.778 57.7598L100.225 61.5241L104.685 70.4743Z" fill="url(#paint1_linear_39_4358)" style="mix-blend-mode:overlay" mask="url(#path-1-inside-1_39_4358)"/>
<defs>
<radialGradient id="paint0_radial_39_4358" cx="0" cy="0" r="1" gradientUnits="userSpaceOnUse" gradientTransform="translate(119.454 0.766357) rotate(66.1359) scale(423.704 397.155)">
<stop stop-color="#FFF1D5" stop-opacity="0.16"/>
<stop offset="0.340574" stop-color="#FFF1D5" stop-opacity="0"/>
<stop offset="1" stop-color="#FFB720"/>
</radialGradient>
<linearGradient id="paint1_linear_39_4358" x1="143.706" y1="0.766357" x2="143.706" y2="287.381" gradientUnits="userSpaceOnUse">
<stop stop-color="white" stop-opacity="0.3"/>
<stop offset="1" stop-color="white" stop-opacity="0.7"/>
</linearGradient>
</defs>
</svg>
