<svg width="25" height="24" viewBox="0 0 25 24" fill="none" xmlns="http://www.w3.org/2000/svg">
<path d="M2.25 12.2039C2.25 9.91549 2.25 8.77128 2.7692 7.82274C3.2884 6.87421 4.23695 6.28551 6.13403 5.10813L8.13403 3.86687C10.1394 2.62229 11.1421 2 12.25 2C13.3579 2 14.3606 2.62229 16.366 3.86687L18.366 5.10812C20.2631 6.28551 21.2116 6.87421 21.7308 7.82274C22.25 8.77128 22.25 9.91549 22.25 12.2039V13.725C22.25 17.6258 22.25 19.5763 21.0784 20.7881C19.9069 22 18.0212 22 14.25 22H10.25C6.47876 22 4.59315 22 3.42157 20.7881C2.25 19.5763 2.25 17.6258 2.25 13.725V12.2039Z" stroke="#FFF1C4" stroke-width="1.5"/>
<path d="M9.25 16C10.1004 16.6303 11.1346 17 12.25 17C13.3654 17 14.3996 16.6303 15.25 16" stroke="#FFF1C4" stroke-width="1.5" stroke-linecap="round"/>
</svg>
