<svg width="16" height="17" viewBox="0 0 16 17" fill="none" xmlns="http://www.w3.org/2000/svg">
<path fill-rule="evenodd" clip-rule="evenodd" d="M2.34306 2.84381C5.46746 -0.280192 10.5324 -0.280192 13.6569 2.84381C16.7809 5.96828 16.7809 11.0332 13.6569 14.1576C10.5325 17.2816 5.46753 17.2816 2.34306 14.1576C-0.78094 11.0332 -0.78094 5.96828 2.34306 2.84381ZM9.40805 7.07644C9.42045 6.78326 9.42255 6.46641 9.40881 6.21785L9.37047 5.52575L9.5314 5.58684C10.0642 5.78925 10.6347 6.30161 10.8845 6.80211C11.0704 7.17468 11.1613 7.62156 11.1442 8.078C11.1312 8.4235 11.1313 8.42379 11.3543 8.53809L11.5775 8.65245L11.3841 8.85175L11.1908 9.05099L11.3832 9.13181L11.5756 9.21263L11.3814 9.43366C11.1949 9.64582 11.1916 9.65792 11.2985 9.73604C11.3598 9.7808 11.4446 9.81745 11.4869 9.81745C11.6553 9.81745 11.5023 10.076 11.2868 10.1556C11.1967 10.1889 10.8848 10.3021 10.5937 10.4073C10.2394 10.5353 9.82169 10.7576 9.32955 11.08C8.51249 11.6153 8.32687 11.7715 8.18716 12.0414C8.13471 12.1427 8.06651 12.2257 8.0357 12.2257C8.00483 12.2257 7.9271 12.1229 7.86301 11.9974C7.63834 11.5575 6.23724 10.6511 5.26513 10.3168C4.77405 10.1479 4.62653 10.0715 4.57549 9.95971C4.5398 9.88147 4.5348 9.81745 4.56432 9.81745C4.5939 9.81745 4.68768 9.79102 4.77276 9.75865L4.92752 9.69991L4.71073 9.4356C4.57355 9.26837 4.52481 9.17134 4.57796 9.17134C4.62424 9.17134 4.71132 9.13533 4.77153 9.0914C4.87548 9.01539 4.87142 9.00282 4.68962 8.84059L4.49829 8.66984L4.73536 8.53674C4.96991 8.40505 4.97209 8.40059 4.93998 8.1267C4.82968 7.18531 5.4323 6.13509 6.34331 5.68111L6.65424 5.52616L6.68364 6.67048C6.68639 6.77738 6.68959 6.8792 6.69317 6.97509L7.47153 6.19673C7.7633 5.90502 8.23663 5.90502 8.52834 6.19673L9.40805 7.07644Z" fill="url(#paint0_linear_39_4336)"/>
<path fill-rule="evenodd" clip-rule="evenodd" d="M3.36279 3.86314C5.92374 1.30219 10.0763 1.30219 12.6373 3.86314C15.1982 6.42409 15.1982 10.5767 12.6373 13.1376C10.0763 15.6986 5.92374 15.6986 3.36279 13.1376C0.801841 10.5767 0.801841 6.42409 3.36279 3.86314ZM6.34332 5.68084C5.4323 6.13482 4.82968 7.18504 4.93998 8.12643C4.97209 8.40032 4.96991 8.40478 4.73537 8.53647L4.49829 8.66957L4.68962 8.84032C4.87142 9.00255 4.87548 9.01512 4.77153 9.09113C4.71132 9.13506 4.62424 9.17107 4.57796 9.17107C4.52481 9.17107 4.57355 9.2681 4.71073 9.43533L4.92752 9.69965L4.77276 9.75838C4.68768 9.79075 4.5939 9.81718 4.56432 9.81718C4.53481 9.81718 4.5398 9.8812 4.57549 9.95944C4.62653 10.0712 4.77405 10.1476 5.26514 10.3165C6.23724 10.6508 7.63834 11.5572 7.86301 11.9971C7.9271 12.1227 8.00483 12.2254 8.0357 12.2254C8.06651 12.2254 8.13471 12.1425 8.18716 12.0411C8.32687 11.7713 8.51249 11.6151 9.32955 11.0797C9.82169 10.7573 10.2394 10.5351 10.5937 10.407C10.8848 10.3019 11.1967 10.1886 11.2868 10.1553C11.5023 10.0757 11.6553 9.81718 11.4869 9.81718C11.4446 9.81718 11.3598 9.78053 11.2985 9.73577C11.1916 9.65765 11.1949 9.64555 11.3814 9.43339L11.5756 9.21236L11.3832 9.13154L11.1908 9.05072L11.3841 8.85148L11.5775 8.65218L11.3543 8.53782C11.1313 8.42352 11.1312 8.42323 11.1442 8.07773C11.1613 7.62129 11.0704 7.17441 10.8845 6.80184C10.6347 6.30134 10.0642 5.78898 9.5314 5.58657L9.37047 5.52548L9.40881 6.21758C9.4425 6.82704 9.38094 7.84707 9.30591 7.92208C9.2911 7.93688 9.09906 7.86052 8.87922 7.75239C8.53325 7.58223 8.41994 7.55579 8.03723 7.55579C7.65445 7.55579 7.54415 7.58158 7.21652 7.74745C6.94952 7.88273 6.8197 7.92079 6.77554 7.87679C6.73785 7.8392 6.7014 7.36049 6.68364 6.67021L6.65424 5.52589L6.34332 5.68084Z" fill="url(#paint1_linear_39_4336)"/>
<path d="M4.70824 8.15359L4.70823 8.15358C4.58539 7.10521 5.24884 5.96555 6.23924 5.472C6.23924 5.472 6.23924 5.472 6.23925 5.472L6.55016 5.31706L6.87809 5.15364L6.88749 5.5199L6.91689 6.66421C6.91689 6.66421 6.91689 6.66422 6.91689 6.66422C6.92572 7.00726 6.93914 7.29525 6.95477 7.50054C6.95784 7.54076 6.96094 7.57724 6.96406 7.60993C7.00451 7.5919 7.0531 7.56868 7.11107 7.53931L7.11113 7.53928C7.27767 7.45496 7.40798 7.3961 7.55312 7.3622C7.69748 7.32849 7.84376 7.32246 8.03723 7.32246C8.23121 7.32246 8.37792 7.32871 8.52505 7.36306C8.67205 7.39738 8.807 7.45684 8.9822 7.54301L8.9822 7.54301C9.03627 7.56961 9.08805 7.59393 9.13512 7.61509C9.14664 7.51589 9.15698 7.39273 9.16522 7.25619C9.18543 6.92139 9.19203 6.52351 9.17583 6.23049C9.17583 6.23048 9.17583 6.23047 9.17583 6.23046L9.1375 5.53839L9.11764 5.17993L9.45328 5.30734L9.61421 5.36842L9.61426 5.36844C10.2007 5.59123 10.8167 6.14361 11.0932 6.69765L11.0932 6.69766C11.2983 7.10856 11.3958 7.59484 11.3773 8.0865C11.374 8.17631 11.372 8.23138 11.3734 8.27158C11.3735 8.27635 11.3737 8.28054 11.374 8.2842C11.3908 8.29404 11.4165 8.30751 11.4607 8.33017L11.6839 8.44453L11.9645 8.58834L11.7449 8.81465L11.5962 8.96795L11.6659 8.99724L11.9649 9.12282L11.7509 9.36638L11.5566 9.5874L11.5566 9.58745C11.5559 9.58831 11.5551 9.58917 11.5543 9.59002C11.588 9.59642 11.6243 9.60869 11.6595 9.63081C11.7261 9.67257 11.768 9.73651 11.7842 9.80559C11.8114 9.9218 11.7619 10.024 11.7316 10.0752C11.6611 10.1944 11.5274 10.3152 11.3677 10.3742C11.3677 10.3742 11.3677 10.3742 11.3677 10.3742L11.2868 10.1553C11.1967 10.1886 10.8848 10.3019 10.5937 10.407L4.70824 8.15359ZM4.70824 8.15359C4.71517 8.2128 4.71917 8.24932 4.72063 8.27522C4.70007 8.28837 4.66995 8.3056 4.62114 8.33301C4.62113 8.33301 4.62113 8.33301 4.62113 8.33301L4.38406 8.46611L4.09913 8.62608L4.34293 8.84366L4.47272 8.95949M4.70824 8.15359L4.47272 8.95949M4.53243 9.58588C4.49364 9.59083 4.45378 9.6051 4.41766 9.63135C4.37356 9.66341 4.34835 9.70361 4.33443 9.73578C4.30916 9.79423 4.31065 9.84936 4.31283 9.8772C4.31775 9.93993 4.33897 10.0032 4.3632 10.0563L4.36324 10.0564C4.42039 10.1815 4.52415 10.2596 4.64801 10.3238L4.53243 9.58588ZM4.53243 9.58588L4.53033 9.58331M4.53243 9.58588L4.53033 9.58331M4.53033 9.58331C4.45978 9.49732 4.39938 9.41472 4.36447 9.34524C4.35163 9.31967 4.31899 9.25305 4.32415 9.1737C4.32736 9.12438 4.34687 9.05316 4.41117 8.9982C4.43138 8.98092 4.45233 8.96845 4.47272 8.95949M4.53033 9.58331L4.47272 8.95949M6.71762 11.3131C6.22796 10.9964 5.65199 10.6963 5.18926 10.5372L6.71762 11.3131ZM6.71762 11.3131C6.96158 11.4709 7.17931 11.6298 7.34752 11.7734M6.71762 11.3131L7.34752 11.7734M7.34752 11.7734C7.52289 11.9231 7.6214 12.0371 7.65518 12.1032L7.34752 11.7734ZM4.63774 8.90814L4.77152 9.09112L4.63786 8.90796C4.64057 8.90391 4.64308 8.90055 4.64518 8.89789C4.65171 8.88963 4.65671 8.88522 4.65675 8.88521C4.65677 8.8852 4.6564 8.88554 4.65557 8.88623C4.65229 8.88898 4.64619 8.89371 4.63405 8.90259C4.63404 8.9026 4.63404 8.9026 4.63403 8.90261C4.63396 8.90266 4.63388 8.90271 4.63381 8.90277L4.63384 8.90282L4.63385 8.90282L4.63774 8.90814Z" stroke="url(#paint2_linear_39_4336)" stroke-width="0.466667"/>
<path d="M10.0028 8.80265V9.75615C10.0028 10.1687 9.66817 10.5035 9.25553 10.5035H6.74444C6.33187 10.5035 5.99714 10.1688 5.99714 9.75615V8.80265H0.00628662C0.0793289 10.7482 0.8579 12.6721 2.34305 14.1575C5.46751 17.2815 10.5325 17.2815 13.6569 14.1575C15.142 12.6722 15.9206 10.7482 15.9936 8.80265H10.0028Z" fill="url(#paint3_linear_39_4336)"/>
<defs>
<linearGradient id="paint0_linear_39_4336" x1="1.73796" y1="8.49997" x2="16.2956" y2="8.49997" gradientUnits="userSpaceOnUse">
<stop stop-color="#FEE45A"/>
<stop offset="1" stop-color="#FEA613"/>
</linearGradient>
<linearGradient id="paint1_linear_39_4336" x1="14.5806" y1="8.49965" x2="0.74747" y2="8.49965" gradientUnits="userSpaceOnUse">
<stop stop-color="#FEE45A"/>
<stop offset="1" stop-color="#FEA613"/>
</linearGradient>
<linearGradient id="paint2_linear_39_4336" x1="6.18221" y1="8.87479" x2="9.64161" y2="8.87475" gradientUnits="userSpaceOnUse">
<stop stop-color="#FEE45A"/>
<stop offset="1" stop-color="#FEA613"/>
</linearGradient>
<linearGradient id="paint3_linear_39_4336" x1="8.00002" y1="10.8465" x2="8.00002" y2="17.7897" gradientUnits="userSpaceOnUse">
<stop stop-color="#FEA613" stop-opacity="0"/>
<stop offset="1" stop-color="#E94444"/>
</linearGradient>
</defs>
</svg>
