<svg width="33" height="32" viewBox="0 0 33 32" fill="none" xmlns="http://www.w3.org/2000/svg">
<path d="M32.0244 19.8616C29.8894 28.4278 21.2133 33.6586 12.6313 31.5223C4.06511 29.3808 -1.1573 20.7046 0.977713 12.1384C3.11273 3.57221 11.7836 -1.65861 20.3446 0.477698C28.9318 2.58783 34.1542 11.2902 32.0244 19.8616Z" fill="#0088CC"/>
<path fill-rule="evenodd" clip-rule="evenodd" d="M10.2751 8.04199H23.0941C23.5228 8.04199 23.9468 8.04199 24.5184 8.32781C25.0901 8.61363 25.3711 9.04236 25.6569 9.32341C25.6569 9.32341 25.6569 9.32341 25.6569 9.46632C25.9428 9.89505 26.0857 10.319 26.0857 10.8906C26.0857 11.3194 25.9428 11.8863 25.6569 12.315L17.5397 26.1343C17.3968 26.4201 16.9681 26.563 16.687 26.563C16.4012 26.563 15.9772 26.4201 15.8343 26.1343L7.85521 12.315C7.7123 12.0292 7.42648 11.6052 7.28357 10.8906C7.28357 10.319 7.42648 9.75214 7.56939 9.32341C7.85521 8.89468 8.27917 8.47072 8.7079 8.1849C9.42244 8.04199 9.98932 8.04199 10.2751 8.04199ZM15.6866 10.038H10.2751C9.98932 10.038 9.84641 10.038 9.7035 10.038C9.56059 10.038 9.41768 10.1809 9.41768 10.3238C9.27477 10.4667 9.27477 10.6096 9.27477 10.7525C9.27477 10.8954 9.27477 10.8954 9.56059 11.3241L15.6866 22.009V10.038ZM17.6826 10.038V22.0042L23.9515 11.3194C23.9515 11.1765 24.0945 11.0336 24.0945 10.7477C24.0945 10.6048 24.0945 10.4619 23.9515 10.319C23.8086 10.1761 23.8086 10.1761 23.8086 10.1761C23.8086 10.1761 23.8086 10.1761 23.6657 10.1761C23.5228 10.1761 23.3799 10.0332 23.0941 10.0332H17.6826V10.038Z" fill="white"/>
</svg>
