<svg xmlns="http://www.w3.org/2000/svg" width="46" height="68" viewBox="0 0 46 68" fill="none">
  <path d="M28.921 21.9225H18.1786C17.2523 21.9225 16.5013 21.1675 16.5013 20.2364C16.5013 19.3052 17.2523 18.5502 18.1786 18.5502H28.921C29.8472 18.5502 30.5982 19.3052 30.5982 20.2364C30.5982 21.1675 29.8474 21.9225 28.921 21.9225Z" fill="#939598"/>
  <path d="M29.5074 18.6581C29.5756 18.8418 29.6148 19.0397 29.6148 19.2475C29.6148 20.1787 28.8638 20.9337 27.9375 20.9337H17.1951C16.9886 20.9337 16.7915 20.8944 16.6088 20.8257C16.8468 21.4658 17.4589 21.9224 18.1786 21.9224H28.921C29.8473 21.9224 30.5983 21.1674 30.5983 20.2363C30.5983 19.5127 30.1441 18.8973 29.5074 18.6581Z" fill="#808285"/>
  <path d="M35.3518 2.61697H11.7478V13.4643C11.7478 14.1651 12.1166 14.8136 12.7175 15.1687L18.4356 18.5502H28.664L34.382 15.1687C34.9828 14.8134 35.3518 14.165 35.3518 13.4643V2.61697Z" fill="#EC523D" fill-opacity="0.94"/>
  <path d="M12.9281 12.1613C12.7109 12.1613 12.5347 11.9841 12.5347 11.7658V5.43793C12.5347 5.21962 12.7109 5.04244 12.9281 5.04244C13.1452 5.04244 13.3215 5.21962 13.3215 5.43793V11.7658C13.3215 11.9843 13.1452 12.1613 12.9281 12.1613ZM12.9281 4.25145C12.7109 4.25145 12.5347 4.07427 12.5347 3.85596V3.80336C12.5347 3.58505 12.7109 3.40787 12.9281 3.40787C13.1452 3.40787 13.3215 3.58505 13.3215 3.80336V3.85596C13.3215 4.07447 13.1452 4.25145 12.9281 4.25145Z" fill="#FEA613"/>
  <path d="M33.3848 2.61697V11.4869C33.3848 12.1877 33.016 12.8361 32.4151 13.1912L26.697 16.5727H16.4686L11.7799 13.7999C11.8773 14.367 12.2144 14.8711 12.7176 15.1687L18.4356 18.5502H28.664L34.3821 15.1687C34.9828 14.8134 35.3518 14.165 35.3518 13.4643V2.61697H33.3848Z" fill="#B9290E"/>
  <path d="M34.3685 2.61697V12.4756C34.3685 13.1764 33.9997 13.8248 33.3987 14.18L27.6807 17.5614H17.4523L11.936 14.2994C12.1017 14.656 12.369 14.9625 12.7175 15.1687L18.4356 18.5502H28.664L34.382 15.1687C34.9828 14.8134 35.3518 14.165 35.3518 13.4643V2.61697H34.3685Z" fill="#841702"/>
  <path d="M36.6073 2.61697H10.4922C9.7735 2.61697 9.19067 2.03125 9.19067 1.30849C9.19067 0.585922 9.7733 0 10.4922 0H36.6073C37.326 0 37.9088 0.585724 37.9088 1.30849C37.9088 2.03125 37.326 2.61697 36.6073 2.61697Z" fill="#939598"/>
  <path d="M37.309 0.20755C37.4391 0.411229 37.5156 0.652874 37.5156 0.91291C37.5156 1.63547 36.933 2.2214 36.214 2.2214H10.099C9.84031 2.2214 9.59994 2.14467 9.39734 2.01376C9.62885 2.37603 10.0323 2.61689 10.4924 2.61689H36.6076C37.3264 2.61689 37.9092 2.03116 37.9092 1.3084C37.909 0.845874 37.6696 0.440297 37.309 0.20755Z" fill="#808285"/>
  <path d="M19.6158 2.61697H27.4838V18.5502H19.6158V2.61697Z" fill="#F1F2F2"/>
  <path d="M19.6158 17.5615H27.4838V18.5502H19.6158V17.5615Z" fill="#E6E7E8"/>
  <path d="M35.3518 40.3141V28.8973C35.3518 28.1907 34.9769 27.538 34.3683 27.1848L24.5333 21.4762C23.9247 21.1231 23.1749 21.1231 22.5663 21.4762L12.7313 27.1848C12.1227 27.538 11.7478 28.1909 11.7478 28.8973V40.3141C11.7478 41.0207 12.1227 41.6734 12.7313 42.0266L22.5663 47.7351C23.1749 48.0883 23.9247 48.0883 24.5333 47.7351L34.3683 42.0266C34.9769 41.6734 35.3518 41.0207 35.3518 40.3141Z" fill="#FFC91D"/>
  <path d="M34.3683 27.1847L34.1819 27.0764C34.3007 27.3335 34.3683 27.6154 34.3683 27.9085V39.3254C34.3683 40.0319 33.9934 40.6847 33.3848 41.0379L23.5498 46.7462C22.9413 47.0994 22.1914 47.0994 21.5828 46.7462L11.9343 41.146C12.1021 41.5087 12.3751 41.8197 12.7314 42.0264L22.5663 47.7347C23.1749 48.0879 23.9248 48.0879 24.5333 47.7347L34.3683 42.0264C34.9769 41.6732 35.3518 41.0203 35.3518 40.3139V28.897C35.3518 28.1907 34.9769 27.5379 34.3683 27.1847Z" fill="#FFA91A"/>
  <path d="M32.6284 38.7332V30.4779C32.6284 29.7714 32.2535 29.1186 31.6449 28.7655L24.5334 24.6379C23.9248 24.2847 23.175 24.2847 22.5664 24.6379L15.4549 28.7655C14.8463 29.1186 14.4714 29.7716 14.4714 30.4779V38.7332C14.4714 39.4398 14.8463 40.0925 15.4549 40.4457L22.5664 44.5733C23.175 44.9264 23.9248 44.9264 24.5334 44.5733L31.6449 40.4457C32.2535 40.0925 32.6284 39.4398 32.6284 38.7332Z" fill="#F79219"/>
  <path d="M31.6448 28.7655L31.4584 28.6572C31.5772 28.9142 31.6448 29.1962 31.6448 29.4893V37.7446C31.6448 38.4511 31.2699 39.1039 30.6613 39.4571L23.5498 43.5846C22.9413 43.9378 22.1914 43.9378 21.5828 43.5846L14.6578 39.5652C14.8256 39.9279 15.0986 40.239 15.4549 40.4456L22.5663 44.5732C23.1749 44.9263 23.9248 44.9263 24.5333 44.5732L31.6448 40.4456C32.2534 40.0924 32.6283 39.4395 32.6283 38.7331V30.4778C32.6283 29.7715 32.2534 29.1187 31.6448 28.7655Z" fill="#EF7816"/>
  <path d="M23.9241 29.2156L25.1216 32.9206H28.9968C29.3778 32.9206 29.5363 33.4108 29.2281 33.636L26.0931 35.9259L27.2906 39.6309C27.4084 39.9953 26.9936 40.2983 26.6852 40.073L23.5502 37.7831L20.4152 40.073C20.1069 40.2983 19.6921 39.9953 19.8097 39.6309L21.0072 35.9259L17.8722 33.636C17.564 33.4108 17.7223 32.9206 18.1036 32.9206H21.9785L23.176 29.2156C23.2935 28.8511 23.8063 28.8511 23.9241 29.2156Z" fill="white"/>
  <path d="M7.02164 35.3633L7.14714 35.951C7.27912 36.5686 7.75887 37.0509 8.37317 37.1836L8.95776 37.3097C9.09879 37.3402 9.09879 37.5423 8.95776 37.5727L8.37317 37.6989C7.75887 37.8316 7.27912 38.3139 7.14714 38.9314L7.02164 39.5191C6.99135 39.6609 6.79032 39.6609 6.76003 39.5191L6.63454 38.9314C6.50255 38.3139 6.0228 37.8316 5.40851 37.6989L4.82391 37.5727C4.68288 37.5423 4.68288 37.3402 4.82391 37.3097L5.40851 37.1836C6.0228 37.0509 6.50255 36.5686 6.63454 35.951L6.76003 35.3633C6.79032 35.2217 6.99135 35.2217 7.02164 35.3633Z" fill="#FFC91D"/>
  <path d="M9.53396 41.3506L9.71788 42.2118C9.91123 43.1167 10.6142 43.8234 11.5143 44.0178L12.371 44.2027C12.5775 44.2472 12.5775 44.5436 12.371 44.5881L11.5143 44.773C10.6142 44.9674 9.91123 45.6741 9.71788 46.579L9.53396 47.4402C9.4897 47.6478 9.19485 47.6478 9.15059 47.4402L8.96668 46.579C8.77332 45.6741 8.07032 44.9674 7.17022 44.773L6.31359 44.5881C6.10706 44.5436 6.10706 44.2472 6.31359 44.2027L7.17022 44.0178C8.07032 43.8234 8.77332 43.1167 8.96668 42.2118L9.15059 41.3506C9.19485 41.143 9.4897 41.143 9.53396 41.3506Z" fill="#FFC91D"/>
  <path d="M38.1227 22.5024L38.2823 23.2495C38.4499 24.0343 39.0598 24.6473 39.8405 24.816L40.5837 24.9764C40.7629 25.0152 40.7629 25.272 40.5837 25.3108L39.8405 25.4712C39.0598 25.6396 38.4501 26.2528 38.2823 27.0377L38.1227 27.7848C38.0842 27.9649 37.8287 27.9649 37.7901 27.7848L37.6306 27.0377C37.463 26.2528 36.8531 25.6398 36.0724 25.4712L35.3292 25.3108C35.15 25.272 35.15 25.0152 35.3292 24.9764L36.0724 24.816C36.8531 24.6475 37.4628 24.0343 37.6306 23.2495L37.7901 22.5024C37.8287 22.3224 38.0842 22.3224 38.1227 22.5024Z" fill="#FFC91D"/>
</svg>