<svg width="170" height="166" viewBox="0 0 170 166" fill="none" xmlns="http://www.w3.org/2000/svg">
<g opacity="0.2">
<path d="M84.908 165.677C122.877 165.677 153.658 162.954 153.658 159.595C153.658 156.236 122.877 153.513 84.908 153.513C46.9387 153.513 16.1584 156.236 16.1584 159.595C16.1584 162.954 46.9387 165.677 84.908 165.677Z" fill="#6B1A4E"/>
</g>
<path d="M107.718 34.7571C107.718 34.7571 88.197 47.1894 64.597 36.776C64.597 36.776 64.6164 29.3161 70.6065 23.0292C71.3497 22.2499 72.1845 21.4901 73.1218 20.7635C74.2561 19.8844 75.3487 18.9859 76.372 18.0762L76.788 17.7046C82.8197 12.2275 86.203 6.4232 80.7592 2.29389C80.3627 1.99438 80.5013 1.37041 80.9922 1.28167C83.3965 0.846273 88.9125 0.463568 95.1771 4.20186L95.1799 4.20463C96.622 5.06433 98.1028 6.14034 99.5948 7.48534C104.182 11.6202 106.287 17.5493 107.213 22.824C108.347 29.28 107.718 34.7571 107.718 34.7571Z" fill="#F99121"/>
<path d="M107.718 34.7571C107.718 34.7571 88.197 47.1894 64.597 36.776C64.597 36.776 64.6164 29.3161 70.6065 23.0292C71.3497 22.2499 72.1845 21.4901 73.1218 20.7635C74.2561 19.8844 75.3487 18.9859 76.372 18.0762L76.788 17.7046C82.8197 12.2275 86.203 6.4232 80.7592 2.29389C80.3627 1.99438 80.5013 1.37041 80.9922 1.28167C83.3965 0.846273 88.9125 0.463568 95.1771 4.20186L95.1799 4.20463C96.622 5.06433 98.1028 6.14034 99.5948 7.48534C104.182 11.6202 106.287 17.5493 107.213 22.824C108.347 29.28 107.718 34.7571 107.718 34.7571Z" fill="url(#paint0_linear_39_4090)"/>
<path d="M107.213 22.8248C107.157 23.1105 107.113 23.3711 107.077 23.5985C106.483 27.4533 103.863 30.5676 103.863 30.5676C103.172 28.0468 99.8611 24.8354 99.8611 24.8354C99.5643 28.2437 97.734 31.3081 97.734 31.3081C97.4373 29.8272 95.8066 27.0567 95.8066 27.0567C94.3257 30.3208 92.5453 31.1611 92.5453 31.1611C91.4582 27.8499 89.7278 24.8825 89.7278 24.8825C89.334 29.9742 85.0494 33.155 85.0494 33.155C84.919 29.8577 82.8752 24.9824 82.8752 24.9824C81.5246 28.1771 78.3937 31.7046 78.3937 31.7046C77.631 28.5238 75.7259 25.7062 75.7259 25.7062L69.5638 30.3846C69.1034 27.5282 70.0657 24.4555 70.6065 23.03C71.3497 22.2508 72.1845 21.4909 73.1218 20.7643C81.2251 14.483 87.2319 7.20608 80.7592 2.29472C80.3627 1.99521 80.5013 1.37124 80.9922 1.2825C83.9484 0.747266 91.6163 0.292458 99.5948 7.48617C104.182 11.621 106.287 17.5502 107.213 22.8248Z" fill="#FFF5E9"/>
<g opacity="0.25">
<path d="M105.674 35.1852C105.674 35.1852 100.807 38.2856 92.9946 40.0938C85.3766 41.5247 75.4153 41.5497 64.597 36.777C64.597 36.777 64.6164 29.3171 70.6065 23.0302C71.3497 22.2509 72.1845 21.4911 73.1218 20.7645C74.2561 19.8854 75.3487 18.9869 76.372 18.0772C76.372 18.0772 66.7629 31.5079 86.2446 33.6821C101.578 35.3904 104.728 21.0335 100.319 10.9972C103.036 14.7216 104.453 19.181 105.169 23.2521C106.303 29.7081 105.674 35.1852 105.674 35.1852Z" fill="#6B1A4E"/>
</g>
<path d="M84.072 41.613C78.232 41.613 71.4644 40.5656 64.3172 37.4123C64.0654 37.3013 63.9029 37.0516 63.9037 36.7763C63.9048 36.3776 64.0285 26.937 72.6978 20.2168C79.3262 15.0784 82.8203 10.5631 82.8024 7.15885C82.7938 5.50818 81.9883 4.098 80.3401 2.84767C79.9382 2.543 79.7538 2.03101 79.8702 1.54326C79.9874 1.05268 80.3699 0.691661 80.8682 0.601088C83.9017 0.0504942 91.8451 -0.433208 100.06 6.97149C110.405 16.2961 108.494 34.0857 108.407 34.8385C108.384 35.0461 108.267 35.232 108.091 35.3443C107.888 35.4737 103.02 38.5368 95.1638 40.3489C92.1056 41.0542 88.3355 41.613 84.072 41.613ZM65.3133 36.3339C77.1352 41.4153 87.854 40.604 94.7981 39.0101C101.391 37.497 105.915 35.0167 107.061 34.3459C107.271 31.858 108.193 16.1687 99.1315 8.00146C91.6211 1.23171 84.423 1.42983 81.4008 1.91664C83.2408 3.3895 84.1784 5.14943 84.189 7.15164C84.2095 11.0584 80.629 15.8229 73.5471 21.3129C66.4629 26.8042 65.4555 34.4238 65.3133 36.3339Z" fill="#6B1A4E"/>
<path d="M55.8503 81.9916C30.176 78.9715 19.7654 69.4261 17.2029 57.8452C16.3377 53.9682 16.3571 49.8611 16.9783 45.6957C18.95 32.4342 26.471 27.215 29.4217 25.651C29.9818 25.3514 30.6779 25.6898 30.775 26.3193C31.9037 33.746 36.0302 37.9807 40.6088 41.572C45.5784 45.4767 51.0832 48.627 53.8481 54.2955C59.2946 65.4632 55.8503 81.9916 55.8503 81.9916Z" fill="#F99121"/>
<path d="M55.8503 81.9916C30.176 78.9715 19.7654 69.4261 17.2029 57.8452C16.3377 53.9682 16.3571 49.8611 16.9783 45.6957C18.95 32.4342 26.471 27.215 29.4217 25.651C29.9818 25.3514 30.6779 25.6898 30.775 26.3193C31.9037 33.746 36.0302 37.9807 40.6088 41.572C45.5784 45.4767 51.0832 48.627 53.8481 54.2955C59.2946 65.4632 55.8503 81.9916 55.8503 81.9916Z" fill="url(#paint1_linear_39_4090)"/>
<path d="M40.3065 44.8388C35.7584 44.2121 33.551 43.6519 33.551 43.6519C35.0346 47.5732 37.0091 51.0009 37.0091 51.0009C31.2769 49.4507 29.4965 46.6164 29.4965 46.6164C30.0567 49.484 29.4965 54.2622 29.4965 54.2622C25.8082 50.9011 23.6007 47.6398 23.6007 47.6398C23.3372 51.4613 22.974 56.2062 22.974 56.2062C21.5568 53.0087 19.1525 50.6043 19.1525 50.6043C18.412 53.6022 17.2528 57.6677 17.2029 57.8452C16.3377 53.9682 16.3571 49.8611 16.9783 45.6957C18.95 32.4342 26.471 27.215 29.4217 25.651C29.9818 25.3514 30.6779 25.6898 30.775 26.3193C31.9037 33.746 36.0302 37.9807 40.6088 41.572L38.6259 40.8842L40.3065 44.8388Z" fill="#FFF5E9"/>
<g opacity="0.25">
<path d="M56.6185 76.5271C56.3024 79.8217 55.8504 81.9904 55.8504 81.9904C50.4482 81.3553 45.7226 80.429 41.6044 79.2587C41.5683 79.2504 41.5323 79.2393 41.499 79.2282C27.1837 74.8161 20.7027 67.2369 18.7643 58.4791C17.9101 54.6492 17.9295 50.592 18.5424 46.4766C20.1398 35.7276 25.4311 30.3254 28.8893 27.8794C26.7234 30.9771 24.7683 35.2645 23.8975 41.1271C23.2763 45.2924 23.2569 49.3996 24.1221 53.2765C26.4682 63.884 35.4007 72.7861 56.6185 76.5271Z" fill="#6B1A4E"/>
</g>
<path d="M55.8511 82.687C55.8243 82.687 55.7969 82.6855 55.7696 82.6822C38.7913 80.6848 27.084 75.621 20.9726 67.6316C16.5506 61.8505 14.9756 54.4361 16.2915 45.5941C18.2986 32.1068 25.9146 26.7261 29.0959 25.0387C29.5615 24.7919 30.1201 24.7856 30.5911 25.0225C31.0567 25.2566 31.3813 25.7028 31.4596 26.2163C31.4596 26.2163 31.4596 26.2163 31.4596 26.2164C32.7942 34.9883 38.5242 39.2211 44.0655 43.3144C48.0587 46.2644 52.1879 49.3146 54.4702 53.9926C59.9589 65.2428 56.6719 81.4507 56.5292 82.135C56.4615 82.4597 56.1756 82.687 55.8511 82.687ZM29.8585 26.2346C29.8247 26.2346 29.7862 26.2422 29.7456 26.2636C26.7503 27.8523 19.5771 32.9361 17.6629 45.7982C16.4044 54.255 17.8885 61.3174 22.074 66.789C27.8723 74.3694 39.0458 79.2258 55.2883 81.2276C55.834 78.1306 57.9142 64.2141 53.2238 54.6005C51.0908 50.228 47.2782 47.4114 43.2417 44.4297C37.4737 40.1689 31.5097 35.7631 30.0887 26.4248C30.0746 26.3324 30.0153 26.2848 29.9682 26.2611C29.9441 26.249 29.9054 26.2346 29.8585 26.2346Z" fill="#6B1A4E"/>
<path d="M64.597 118.095C64.597 118.095 53.6817 106.367 38.393 107.036C27.5165 107.513 18.2373 105.705 11.2738 99.7422C8.45071 97.3295 6.00751 94.2318 3.99417 90.3299C-1.44409 79.7945 2.70463 67.4953 4.80949 62.5617C5.13673 61.7991 6.2155 61.788 6.55661 62.5479C8.29818 66.4303 12.8102 71.228 20.3034 72.2236C20.6223 72.2652 20.9468 72.3012 21.2768 72.329C25.7361 72.7117 30.1067 73.2635 33.5122 73.7461C40.423 74.7278 47.0288 77.3318 52.6362 81.4889C72.6754 96.3395 64.597 118.095 64.597 118.095Z" fill="#F99121"/>
<path d="M64.597 118.095C64.597 118.095 53.6817 106.367 38.393 107.036C27.5165 107.513 18.2373 105.705 11.2738 99.7422C8.45071 97.3295 6.00751 94.2318 3.99417 90.3299C-1.44409 79.7945 2.70463 67.4953 4.80949 62.5617C5.13673 61.7991 6.2155 61.788 6.55661 62.5479C8.29818 66.4303 12.8102 71.228 20.3034 72.2236C20.6223 72.2652 20.9468 72.3012 21.2768 72.329C25.7361 72.7117 30.1067 73.2635 33.5122 73.7461C40.423 74.7278 47.0288 77.3318 52.6362 81.4889C72.6754 96.3395 64.597 118.095 64.597 118.095Z" fill="url(#paint2_linear_39_4090)"/>
<path d="M17.422 77.6674C17.422 77.6674 20.4365 79.3979 21.5985 81.1284L15.4946 81.6719C15.4946 81.6719 17.8657 83.4496 22.3639 86.6637C22.3639 86.6637 17.4719 87.3542 12.6271 87.4042C12.6271 87.4042 14.3576 93.2861 18.9528 95.954C18.9528 95.954 13.9611 96.8941 10.2561 94.3233C10.2561 94.3233 10.4252 97.127 11.2738 99.7422C8.45071 97.3295 6.00751 94.2318 3.99417 90.3299C-1.44409 79.7945 2.70463 67.4953 4.80949 62.5617C5.13673 61.7991 6.2155 61.788 6.55661 62.5479C8.29818 66.4303 12.8102 71.228 20.3034 72.2236C20.3034 72.2236 22.8104 72.8476 25.7749 76.0728C25.7749 76.0728 22.0671 76.0368 17.422 77.6674Z" fill="#FFF5E9"/>
<g opacity="0.25">
<path d="M65.1461 116.249C61.8904 113.288 52.4365 105.842 40.1679 106.377C29.2913 106.854 20.0122 105.046 13.0487 99.0833C10.2256 96.6706 7.78236 93.5729 5.76901 89.671C1.40399 81.2127 3.21766 71.6174 5.19218 65.6078C4.93705 70.0172 5.51665 74.8038 7.82396 79.2715C9.8373 83.1734 12.2805 86.271 15.1036 88.6837C22.0671 94.6461 31.3463 96.4543 42.2228 95.9773C53.3156 95.492 62.1067 101.532 66.0945 104.885C66.4967 109.838 65.7229 113.987 65.1461 116.249Z" fill="#6B1A4E"/>
</g>
<path d="M64.597 118.789C64.4066 118.789 64.2222 118.71 64.0898 118.568C63.9823 118.453 53.1979 107.079 38.4244 107.729C37.3457 107.776 36.2898 107.8 35.259 107.8C19.5698 107.8 9.39561 102.303 3.37937 90.6486C-2.20792 79.825 2.07213 67.2115 4.1715 62.2907C4.43202 61.68 5.00646 61.2968 5.67048 61.2906C6.34292 61.2868 6.91731 61.6575 7.18981 62.2645C9.0311 66.3692 13.7142 70.9874 21.3361 71.6388C25.0987 71.9603 29.2279 72.4383 33.6089 73.0597C40.7434 74.0717 47.4663 76.794 53.0503 80.9322C63.6148 88.7614 66.3712 98.5133 66.8234 105.316C67.3128 112.674 65.3314 118.109 65.247 118.337C65.1633 118.563 64.9686 118.728 64.7329 118.776C64.6877 118.785 64.6422 118.789 64.597 118.789ZM39.6777 106.315C52.2227 106.315 61.5216 114.173 64.2774 116.798C64.8172 114.891 65.7932 110.587 65.4363 105.352C64.7923 95.907 60.3473 88.0659 52.2248 82.0464C46.8255 78.045 40.3209 75.4122 33.4142 74.4325C29.0586 73.8147 24.9551 73.3397 21.218 73.0203C12.9965 72.3177 7.9272 67.2966 5.9245 62.8319C5.86327 62.6957 5.74957 62.6776 5.68318 62.6772C5.61978 62.6778 5.50497 62.699 5.44701 62.8349C3.42451 67.5751 -0.705786 79.7123 4.61156 90.0125C10.7454 101.895 21.4642 107.083 38.3637 106.344C38.8054 106.324 39.2436 106.315 39.6777 106.315Z" fill="#6B1A4E"/>
<path d="M65.6536 128.573C61.0196 136.415 37.9992 138.723 37.9992 138.723C34.566 138.936 31.4794 138.87 28.7062 138.573C3.54887 135.889 4.12087 114.217 4.72831 108.444C4.78766 107.881 5.47719 107.645 5.87531 108.049C14.4083 116.696 19.5768 111.626 29.0556 108.101C29.0584 108.098 29.0611 108.098 29.0611 108.098C33.0878 106.6 37.891 105.383 44.0614 105.613C65.3014 106.404 65.6536 128.573 65.6536 128.573Z" fill="#F99121"/>
<path d="M65.6536 128.573C61.0196 136.415 37.9992 138.723 37.9992 138.723C34.566 138.936 31.4794 138.87 28.7062 138.573C3.54887 135.889 4.12087 114.217 4.72831 108.444C4.78766 107.881 5.47719 107.645 5.87531 108.049C14.4083 116.696 19.5768 111.626 29.0556 108.101C29.0584 108.098 29.0611 108.098 29.0611 108.098C33.0878 106.6 37.891 105.383 44.0614 105.613C65.3014 106.404 65.6536 128.573 65.6536 128.573Z" fill="url(#paint3_linear_39_4090)"/>
<path d="M19.746 129.166C19.746 129.166 22.9074 131.884 30.2232 132.381C30.2232 132.381 29.1361 134.649 23.7477 135.121C23.7477 135.148 23.7671 136.973 28.7062 138.573C3.54887 135.889 4.12087 114.218 4.72831 108.445C4.78766 107.881 5.47719 107.646 5.87531 108.049C14.4083 116.697 19.5768 111.626 29.0556 108.101C28.8809 108.207 23.2762 111.604 21.3294 116.759C21.4515 116.67 24.9568 114.211 31.7539 118.096C31.7539 118.096 27.0589 118.196 24.1942 120.32C24.1942 120.32 26.7622 120.567 29.136 121.31C29.136 121.31 27.5054 122.791 24.7377 123.484C24.7377 123.484 27.8021 124.571 30.0262 124.768C30.0262 124.768 28.2459 129.366 19.746 129.166Z" fill="#FFF5E9"/>
<g opacity="0.25">
<path d="M65.6536 128.572C65.4539 128.911 65.2182 129.241 64.952 129.56C57.5836 135.4 39.5799 137.205 39.5799 137.205C36.1467 137.419 33.0601 137.352 30.2869 137.056C12.9627 135.209 7.8406 124.354 6.52887 115.888C9.12459 122.715 14.9067 129.354 27.3972 130.763C30.0179 131.06 32.9381 131.126 36.1855 130.913C36.1855 130.913 57.958 128.606 62.3396 120.763C62.3396 120.763 62.3036 118.339 61.5271 115.064C65.5371 121.398 65.6536 128.572 65.6536 128.572Z" fill="#6B1A4E"/>
</g>
<path d="M34.0944 139.539C23.7561 139.539 15.9237 136.815 10.7565 131.42C3.32162 123.658 3.58213 112.717 4.03904 108.373C4.09484 107.844 4.44094 107.407 4.94278 107.231C5.44706 107.054 5.99299 107.181 6.36782 107.561C12.9918 114.274 17.3396 112.366 23.9213 109.479C28.8906 107.298 35.0791 104.583 44.0869 104.921C55.4029 105.342 60.8605 111.769 63.4463 117.087C66.2246 122.801 66.3435 128.33 66.3473 128.563C66.3492 128.691 66.3159 128.817 66.2509 128.927C61.4923 136.978 39.022 139.316 38.0677 139.412C36.7052 139.497 35.38 139.539 34.0944 139.539ZM5.41289 108.567C4.97933 112.755 4.75342 123.148 11.7579 130.461C17.2724 136.218 26.089 138.765 37.9558 138.03C38.1546 138.01 60.3118 135.707 64.9534 128.391C64.9049 127.37 64.5534 122.512 62.1791 117.652C58.6557 110.44 52.5511 106.623 44.0354 106.306C35.3385 105.984 29.3176 108.625 24.4786 110.748C17.8939 113.638 12.6904 115.921 5.41289 108.567Z" fill="#6B1A4E"/>
<path d="M72.7918 135.712C72.7918 135.712 72.9166 159.859 46.5878 160.139C46.1441 160.147 45.692 160.144 45.2344 160.136C24.5595 159.728 19.9053 148.54 18.895 144.469C18.7459 143.868 19.3206 143.34 19.9073 143.538C22.5256 144.422 28.7188 145.486 34.3746 138.724C35.3064 137.612 36.3491 136.489 37.4972 135.41C37.4972 135.407 37.4972 135.407 37.4972 135.407C45.4951 127.872 58.4987 122.315 72.7918 135.712Z" fill="#F99121"/>
<path d="M72.7918 135.712C72.7918 135.712 72.9166 159.859 46.5878 160.139C46.1441 160.147 45.692 160.144 45.2344 160.136C24.5595 159.728 19.9053 148.54 18.895 144.469C18.7459 143.868 19.3206 143.34 19.9073 143.538C22.5256 144.422 28.7188 145.486 34.3746 138.724C35.3064 137.612 36.3491 136.489 37.4972 135.41C37.4972 135.407 37.4972 135.407 37.4972 135.407C45.4951 127.872 58.4987 122.315 72.7918 135.712Z" fill="url(#paint4_linear_39_4090)"/>
<path d="M46.5878 160.139C46.1441 160.147 45.692 160.144 45.2344 160.136C24.5595 159.728 19.9053 148.54 18.895 144.469C18.7459 143.868 19.3206 143.34 19.9073 143.538C22.5256 144.422 28.7188 145.486 34.3746 138.724C35.3057 137.613 36.3477 136.49 37.4949 135.412C37.4953 135.412 37.4965 135.411 37.4962 135.412C37.4132 135.557 35.4476 139.034 34.7684 142.709C34.7683 142.709 34.7684 142.709 34.7684 142.709C34.7694 142.708 36.3028 141.622 39.2165 141.375C39.2165 141.375 39.2166 141.375 39.2166 141.375C39.215 141.377 36.5485 144.44 35.3619 146.22C35.3619 146.22 35.3617 146.22 35.3618 146.22C35.3658 146.219 38.8751 145.727 43.1711 146.467C43.1712 146.467 43.1712 146.467 43.1712 146.467C43.1695 146.468 38.426 149.312 36.6985 150.929C36.6992 150.929 39.4167 151.805 43.8642 151.902C43.8644 151.902 43.8647 151.902 43.8645 151.902C43.8567 151.908 39.858 155.067 37.5862 155.388C37.5861 155.388 37.5859 155.388 37.5859 155.388C37.5887 155.393 39.4409 158.529 46.5878 160.139Z" fill="#FFF5E9"/>
<g opacity="0.25">
<path d="M72.7918 135.712C72.7918 135.712 72.8084 138.993 71.5105 143.15C68.7734 149.927 62.3645 157.853 47.3448 158.014C46.9011 158.022 46.4491 158.02 45.9915 158.011C30.9164 157.714 24.3577 151.686 21.5208 146.863C24.7987 149.916 30.3257 152.642 39.6298 152.825C40.0208 152.834 40.4091 152.834 40.7918 152.828C63.41 152.587 63.3046 131.843 63.3046 131.843C61.5242 130.174 59.7688 128.851 58.0439 127.822C62.6779 128.526 67.653 130.895 72.7918 135.712Z" fill="#6B1A4E"/>
</g>
<path d="M46.1234 160.836C45.825 160.836 45.5246 160.833 45.2221 160.827C36.1678 160.649 29.1069 158.419 24.2362 154.199C20.2002 150.703 18.7353 146.706 18.2213 144.636C18.0913 144.112 18.2573 143.559 18.6544 143.194C19.0517 142.828 19.6164 142.707 20.1282 142.881C23.0005 143.85 28.6024 144.542 33.8423 138.277C37.1788 134.288 44.1974 127.511 53.717 126.934C60.4052 126.53 66.9802 129.312 73.267 135.206C73.4059 135.336 73.485 135.517 73.4861 135.708C73.4883 136.142 73.4555 146.416 66.0014 153.763C61.2371 158.459 54.5528 160.836 46.1234 160.836ZM19.6529 144.188C19.6361 144.188 19.6152 144.194 19.5936 144.214C19.5543 144.25 19.5638 144.287 19.5673 144.302V144.302C20.0415 146.213 21.3969 149.905 25.144 153.151C29.7634 157.153 36.5277 159.27 45.2492 159.441C53.7118 159.61 60.361 157.369 65.0175 152.786C71.3805 146.524 72.0269 137.714 72.0922 136.006C66.1642 130.528 60.0144 127.941 53.8009 128.318C44.8002 128.863 38.0993 135.349 34.906 139.167C28.9212 146.323 22.2677 145.067 19.6845 144.194C19.6781 144.192 19.6669 144.188 19.6529 144.188Z" fill="#6B1A4E"/>
<path d="M113.783 81.9905C139.457 78.9705 149.868 69.4251 152.43 57.8441C153.295 53.9672 153.276 49.86 152.655 45.6947C150.683 32.4332 143.162 27.214 140.211 25.6499C139.651 25.3504 138.955 25.6887 138.858 26.3182C137.729 33.7449 133.603 37.9796 129.024 41.5709C124.055 45.4756 118.55 48.626 115.785 54.2944C110.338 65.4621 113.783 81.9905 113.783 81.9905Z" fill="#F99121"/>
<path d="M113.783 81.9905C139.457 78.9705 149.868 69.4251 152.43 57.8441C153.295 53.9672 153.276 49.86 152.655 45.6947C150.683 32.4332 143.162 27.214 140.211 25.6499C139.651 25.3504 138.955 25.6887 138.858 26.3182C137.729 33.7449 133.603 37.9796 129.024 41.5709C124.055 45.4756 118.55 48.626 115.785 54.2944C110.338 65.4621 113.783 81.9905 113.783 81.9905Z" fill="url(#paint5_linear_39_4090)"/>
<path d="M129.326 44.8377C133.874 44.211 136.082 43.6508 136.082 43.6508C134.598 47.5721 132.624 50.9998 132.624 50.9998C138.356 49.4496 140.136 46.6154 140.136 46.6154C139.576 49.4829 140.136 54.2611 140.136 54.2611C143.825 50.9 146.032 47.6387 146.032 47.6387C146.296 51.4602 146.659 56.2051 146.659 56.2051C148.076 53.0076 150.48 50.6033 150.48 50.6033C151.221 53.6011 152.38 57.6666 152.43 57.8441C153.295 53.9672 153.276 49.86 152.655 45.6947C150.683 32.4332 143.162 27.214 140.211 25.6499C139.651 25.3504 138.955 25.6887 138.858 26.3182C137.729 33.7449 133.603 37.9796 129.024 41.5709L131.007 40.8831L129.326 44.8377Z" fill="#FFF5E9"/>
<g opacity="0.25">
<path d="M113.014 76.527C113.331 79.8216 113.783 81.9903 113.783 81.9903C119.185 81.3552 123.91 80.4289 128.029 79.2586C128.065 79.2503 128.101 79.2392 128.134 79.2281C142.449 74.816 148.93 67.2368 150.869 58.479C151.723 54.6492 151.703 50.5919 151.091 46.4765C149.493 35.7275 144.202 30.3253 140.744 27.8793C142.91 30.977 144.865 35.2644 145.735 41.127C146.357 45.2923 146.376 49.3995 145.511 53.2764C143.165 63.884 134.232 72.786 113.014 76.527Z" fill="#6B1A4E"/>
</g>
<path d="M113.782 82.6858C113.457 82.6858 113.171 82.4585 113.104 82.1339C112.961 81.4495 109.674 65.2416 115.162 53.9915C117.445 49.3135 121.574 46.2632 125.567 43.3134C131.109 39.2199 136.839 34.9871 138.173 26.2152C138.173 26.215 138.173 26.215 138.173 26.215C138.252 25.7015 138.576 25.2552 139.042 25.0211C139.512 24.7848 140.071 24.7906 140.536 25.0375C143.718 26.7247 151.334 32.1053 153.341 45.5928C154.657 54.435 153.082 61.8496 148.66 67.6306C142.549 75.6199 130.841 80.6836 113.863 82.6811C113.836 82.6843 113.809 82.6858 113.782 82.6858ZM139.544 26.4237C138.123 35.762 132.159 40.1679 126.391 44.4286C122.355 47.4105 118.542 50.2269 116.409 54.5994C111.715 64.2206 113.798 78.1309 114.344 81.2265C130.587 79.2247 141.76 74.3683 147.559 66.7882C151.744 61.3165 153.228 54.254 151.97 45.7971C150.056 32.9345 142.882 27.851 139.887 26.2624C139.79 26.2115 139.706 26.2391 139.665 26.26C139.618 26.2837 139.558 26.3313 139.544 26.4237Z" fill="#6B1A4E"/>
<path d="M105.036 118.095C105.036 118.095 115.951 106.367 131.24 107.036C142.116 107.513 151.396 105.705 158.359 99.7422C161.182 97.3295 163.625 94.2318 165.639 90.3299C171.077 79.7945 166.928 67.4953 164.823 62.5617C164.496 61.7991 163.417 61.788 163.076 62.5479C161.335 66.4303 156.823 71.228 149.33 72.2236C149.011 72.2652 148.686 72.3012 148.356 72.329C143.897 72.7117 139.526 73.2635 136.121 73.7461C129.21 74.7278 122.604 77.3318 116.997 81.4889C96.9575 96.3395 105.036 118.095 105.036 118.095Z" fill="#F99121"/>
<path d="M105.036 118.095C105.036 118.095 115.951 106.367 131.24 107.036C142.116 107.513 151.396 105.705 158.359 99.7422C161.182 97.3295 163.625 94.2318 165.639 90.3299C171.077 79.7945 166.928 67.4953 164.823 62.5617C164.496 61.7991 163.417 61.788 163.076 62.5479C161.335 66.4303 156.823 71.228 149.33 72.2236C149.011 72.2652 148.686 72.3012 148.356 72.329C143.897 72.7117 139.526 73.2635 136.121 73.7461C129.21 74.7278 122.604 77.3318 116.997 81.4889C96.9575 96.3395 105.036 118.095 105.036 118.095Z" fill="url(#paint6_linear_39_4090)"/>
<path d="M152.211 77.6674C152.211 77.6674 149.196 79.3979 148.034 81.1284L154.138 81.6719C154.138 81.6719 151.767 83.4496 147.269 86.6637C147.269 86.6637 152.161 87.3542 157.006 87.4042C157.006 87.4042 155.275 93.2861 150.68 95.954C150.68 95.954 155.672 96.8941 159.377 94.3233C159.377 94.3233 159.208 97.127 158.359 99.7422C161.182 97.3295 163.625 94.2318 165.639 90.3299C171.077 79.7945 166.928 67.4953 164.823 62.5617C164.496 61.7991 163.417 61.788 163.076 62.5479C161.335 66.4303 156.823 71.228 149.33 72.2236C149.33 72.2236 146.823 72.8476 143.858 76.0728C143.858 76.0728 147.566 76.0368 152.211 77.6674Z" fill="#FFF5E9"/>
<g opacity="0.25">
<path d="M104.487 116.249C107.743 113.288 117.196 105.842 129.465 106.377C140.342 106.854 149.621 105.046 156.584 99.0833C159.407 96.6706 161.851 93.5729 163.864 89.671C168.229 81.2127 166.415 71.6174 164.441 65.6078C164.696 70.0172 164.116 74.8038 161.809 79.2715C159.796 83.1734 157.352 86.271 154.529 88.6837C147.566 94.6461 138.287 96.4543 127.41 95.9773C116.317 95.492 107.526 101.532 103.538 104.885C103.136 109.838 103.91 113.987 104.487 116.249Z" fill="#6B1A4E"/>
</g>
<path d="M105.036 118.789C104.991 118.789 104.945 118.785 104.9 118.776C104.664 118.729 104.469 118.563 104.386 118.337C104.301 118.109 102.32 112.674 102.809 105.315C103.262 98.5132 106.018 88.7614 116.583 80.9322C122.167 76.7939 128.89 74.0716 136.024 73.0597C140.405 72.4383 144.534 71.9603 148.297 71.6388C155.918 70.9873 160.602 66.3689 162.443 62.2645C162.713 61.6626 163.288 61.2906 163.946 61.2906C163.952 61.2906 163.957 61.2906 163.963 61.2906C164.627 61.2968 165.201 61.68 165.462 62.2907C167.561 67.2116 171.84 79.8257 166.254 90.6486C160.238 102.302 150.061 107.799 134.374 107.8C133.342 107.8 132.288 107.776 131.208 107.729C116.408 107.077 105.65 118.453 105.543 118.568C105.411 118.71 105.226 118.789 105.036 118.789ZM163.947 62.6772C163.882 62.6772 163.769 62.6979 163.708 62.8318C161.706 67.2966 156.637 72.3176 148.415 73.0202C144.678 73.3397 140.574 73.8147 136.219 74.4324C129.312 75.4121 122.808 78.0449 117.408 82.0463C109.286 88.0658 104.841 95.9069 104.197 105.352C103.84 110.587 104.816 114.891 105.355 116.797C108.207 114.082 118.068 105.767 131.269 106.343C148.164 107.083 158.887 101.895 165.022 90.0124C170.338 79.7131 166.208 67.5752 164.186 62.8348C164.128 62.699 164.013 62.6777 163.95 62.6772C163.949 62.6772 163.948 62.6772 163.947 62.6772Z" fill="#6B1A4E"/>
<path d="M103.979 128.573C108.613 136.415 131.634 138.723 131.634 138.723C135.067 138.936 138.154 138.87 140.927 138.573C166.084 135.889 165.512 114.217 164.905 108.444C164.845 107.881 164.156 107.645 163.758 108.049C155.225 116.696 150.056 111.626 140.577 108.101C140.575 108.098 140.572 108.098 140.572 108.098C136.545 106.6 131.742 105.383 125.571 105.613C104.332 106.404 103.979 128.573 103.979 128.573Z" fill="#F99121"/>
<path d="M103.979 128.573C108.613 136.415 131.634 138.723 131.634 138.723C135.067 138.936 138.154 138.87 140.927 138.573C166.084 135.889 165.512 114.217 164.905 108.444C164.845 107.881 164.156 107.645 163.758 108.049C155.225 116.696 150.056 111.626 140.577 108.101C140.575 108.098 140.572 108.098 140.572 108.098C136.545 106.6 131.742 105.383 125.571 105.613C104.332 106.404 103.979 128.573 103.979 128.573Z" fill="url(#paint7_linear_39_4090)"/>
<path d="M149.887 129.166C149.887 129.166 146.725 131.884 139.41 132.381C139.41 132.381 140.497 134.649 145.885 135.121C145.885 135.148 145.866 136.973 140.927 138.573C166.084 135.889 165.512 114.218 164.905 108.445C164.845 107.881 164.156 107.646 163.758 108.049C155.225 116.697 150.056 111.626 140.577 108.101C140.752 108.207 146.357 111.604 148.303 116.759C148.181 116.67 144.676 114.211 137.879 118.096C137.879 118.096 142.574 118.196 145.439 120.32C145.439 120.32 142.871 120.567 140.497 121.31C140.497 121.31 142.128 122.791 144.895 123.484C144.895 123.484 141.831 124.571 139.607 124.768C139.607 124.768 141.387 129.366 149.887 129.166Z" fill="#FFF5E9"/>
<g opacity="0.25">
<path d="M103.979 128.572C104.179 128.911 104.415 129.241 104.681 129.56C112.049 135.4 130.053 137.205 130.053 137.205C133.486 137.419 136.573 137.352 139.346 137.056C156.67 135.209 161.792 124.354 163.104 115.888C160.508 122.715 154.726 129.354 142.236 130.763C139.615 131.06 136.695 131.126 133.447 130.913C133.447 130.913 111.675 128.606 107.293 120.763C107.293 120.763 107.329 118.339 108.106 115.064C104.096 121.398 103.979 128.572 103.979 128.572Z" fill="#6B1A4E"/>
</g>
<path d="M135.548 139.54C134.267 139.54 132.949 139.498 131.591 139.414C130.611 139.316 108.141 136.978 103.382 128.927C103.317 128.817 103.284 128.691 103.286 128.563C103.289 128.33 103.408 122.801 106.187 117.087C108.772 111.769 114.23 105.342 125.546 104.921C134.556 104.583 140.743 107.298 145.711 109.479C152.293 112.366 156.641 114.274 163.265 107.561C163.64 107.181 164.186 107.055 164.69 107.231C165.192 107.407 165.538 107.844 165.594 108.373C166.051 112.717 166.311 123.658 158.876 131.42C153.708 136.816 145.871 139.54 135.548 139.54ZM104.68 128.391C109.321 135.707 131.478 138.01 131.703 138.032C143.548 138.765 152.36 136.218 157.875 130.461C164.888 123.139 164.653 112.728 164.219 108.553C156.951 115.924 151.745 113.64 145.154 110.748C140.315 108.625 134.292 105.982 125.597 106.306C117.082 106.623 110.977 110.44 107.454 117.652C105.08 122.512 104.728 127.37 104.68 128.391Z" fill="#6B1A4E"/>
<path d="M96.8411 135.711C96.8411 135.711 96.7163 159.858 123.045 160.138C123.489 160.146 123.941 160.143 124.398 160.135C145.073 159.727 149.728 148.539 150.738 144.468C150.887 143.867 150.312 143.339 149.726 143.537C147.107 144.421 140.914 145.485 135.258 138.723C134.326 137.611 133.284 136.488 132.136 135.409C132.136 135.406 132.136 135.406 132.136 135.406C124.138 127.871 111.134 122.314 96.8411 135.711Z" fill="#F99121"/>
<path d="M96.8411 135.711C96.8411 135.711 96.7163 159.858 123.045 160.138C123.489 160.146 123.941 160.143 124.398 160.135C145.073 159.727 149.728 148.539 150.738 144.468C150.887 143.867 150.312 143.339 149.726 143.537C147.107 144.421 140.914 145.485 135.258 138.723C134.326 137.611 133.284 136.488 132.136 135.409C132.136 135.406 132.136 135.406 132.136 135.406C124.138 127.871 111.134 122.314 96.8411 135.711Z" fill="url(#paint8_linear_39_4090)"/>
<path d="M123.045 160.137C123.489 160.145 123.941 160.142 124.398 160.134C145.073 159.726 149.728 148.538 150.738 144.467C150.887 143.866 150.312 143.338 149.726 143.536C147.107 144.421 140.914 145.484 135.258 138.722C134.327 137.611 133.285 136.489 132.138 135.41C132.138 135.41 132.136 135.409 132.137 135.41C132.22 135.555 134.185 139.032 134.864 142.707C134.864 142.707 134.865 142.707 134.864 142.707C134.863 142.707 133.33 141.62 130.416 141.373C130.416 141.373 130.416 141.373 130.416 141.373C130.418 141.375 133.084 144.438 134.271 146.218C134.271 146.218 134.271 146.218 134.271 146.218C134.267 146.218 130.758 145.725 126.462 146.465C126.463 146.466 131.207 149.311 132.934 150.927C132.934 150.927 130.216 151.803 125.769 151.9C125.769 151.9 125.768 151.9 125.768 151.9C125.776 151.907 129.775 155.065 132.047 155.386C132.047 155.386 132.047 155.386 132.047 155.386C132.044 155.391 130.192 158.527 123.045 160.137Z" fill="#FFF5E9"/>
<g opacity="0.25">
<path d="M96.8411 135.711C96.8411 135.711 96.8244 138.991 98.1223 143.149C100.859 149.926 107.268 157.852 122.288 158.013C122.732 158.021 123.184 158.018 123.641 158.01C138.716 157.713 145.275 151.684 148.112 146.862C144.834 149.915 139.307 152.641 130.003 152.824C129.612 152.833 129.224 152.833 128.841 152.827C106.223 152.586 106.328 131.842 106.328 131.842C108.109 130.173 109.864 128.85 111.589 127.821C106.955 128.525 101.98 130.894 96.8411 135.711Z" fill="#6B1A4E"/>
</g>
<path d="M123.509 160.836C115.079 160.836 108.396 158.459 103.631 153.763C96.1773 146.416 96.1446 136.141 96.1468 135.708C96.1479 135.517 96.2269 135.336 96.3659 135.205C102.653 129.311 109.234 126.53 115.916 126.933C125.436 127.511 132.454 134.288 135.79 138.277C141.03 144.542 146.632 143.85 149.505 142.881C150.017 142.707 150.581 142.828 150.979 143.194C151.376 143.559 151.542 144.112 151.412 144.636C150.898 146.706 149.433 150.703 145.397 154.199C140.526 158.419 133.465 160.649 124.411 160.827C124.109 160.833 123.807 160.836 123.509 160.836ZM97.5407 136.006C97.606 137.714 98.2524 146.523 104.615 152.786C109.272 157.369 115.924 159.608 124.384 159.441C133.105 159.269 139.869 157.153 144.489 153.151C148.236 149.905 149.591 146.213 150.066 144.302V144.301C150.069 144.287 150.079 144.25 150.039 144.214C149.999 144.177 149.962 144.189 149.948 144.194C147.366 145.066 140.712 146.323 134.727 139.167C131.534 135.349 124.833 128.863 115.832 128.318C109.616 127.941 103.469 130.528 97.5407 136.006Z" fill="#6B1A4E"/>
<path d="M66.6769 159.456C57.4171 160.834 53.4015 158.327 53.7482 155.734C53.8564 154.933 54.2612 154.309 54.7715 153.834C54.7743 153.832 54.7743 153.829 54.7743 153.829C55.9141 152.767 57.5697 152.428 57.5697 152.428C57.4809 152.328 57.395 152.226 57.309 152.126C54.9629 149.353 53.7981 146.593 53.4154 143.97C52.8774 140.332 53.8425 136.959 55.2291 134.189C57.4338 129.782 60.7062 126.904 60.7062 126.904C61.9791 129.355 63.4045 132.181 64.7689 135.121C67.3341 140.659 69.6775 146.61 70.3847 151.25C71.0613 155.69 70.2377 158.926 66.6769 159.456Z" fill="#F99121"/>
<path d="M66.6769 159.456C57.4171 160.834 53.4015 158.327 53.7482 155.734C53.8564 154.933 54.2612 154.309 54.7715 153.834C54.7743 153.832 54.7743 153.829 54.7743 153.829C55.9141 152.767 57.5697 152.428 57.5697 152.428C57.4809 152.328 57.395 152.226 57.309 152.126C54.9629 149.353 53.7981 146.593 53.4154 143.97C52.8774 140.332 53.8425 136.959 55.2291 134.189C57.4338 129.782 60.7062 126.904 60.7062 126.904C61.9791 129.355 63.4045 132.181 64.7689 135.121C67.3341 140.659 69.6775 146.61 70.3847 151.25C71.0613 155.69 70.2377 158.926 66.6769 159.456Z" fill="url(#paint9_linear_39_4090)"/>
<path d="M66.6769 159.455C57.4172 160.834 53.4016 158.327 53.7482 155.734C54.0949 153.138 57.5697 152.428 57.5697 152.428C57.4809 152.328 57.395 152.226 57.309 152.126C57.309 152.126 59.07 150.123 62.3396 151.341C65.6092 152.561 66.993 150.72 69.2338 150.947C69.6498 150.989 70.0352 151.097 70.3847 151.249C71.0613 155.689 70.2377 158.926 66.6769 159.455Z" fill="#935125"/>
<path d="M59.6634 145.295C58.0356 146.856 55.401 147.25 53.4154 143.969C52.8774 140.331 53.8425 136.959 55.2291 134.188C55.487 133.844 55.7643 133.581 56.0555 133.451C56.0555 133.451 54.6051 137.805 55.2651 141.088C55.9224 144.374 58.3989 144.818 59.0922 143.04C59.7855 141.263 58.0134 140.722 57.2119 141.817C57.2424 141.729 57.8165 140.167 59.3251 140.592C60.8726 141.03 61.3024 143.72 59.6634 145.295Z" fill="#935125"/>
<g opacity="0.25">
<path d="M66.6769 159.456C57.4172 160.834 53.4016 158.327 53.7482 155.734C53.8564 154.933 54.2612 154.309 54.7715 153.834C54.7077 153.987 53.4515 157.071 59.3334 157.204C65.3624 157.34 69.8633 153.662 61.2608 152.29L57.309 152.126C57.309 152.126 63.7012 146.893 60.4067 135.626C60.4067 135.626 62.2481 135.373 64.7689 135.121C67.3341 140.659 69.6775 146.61 70.3847 151.25C71.0613 155.69 70.2377 158.926 66.6769 159.456Z" fill="#6B1A4E"/>
</g>
<path d="M57.4529 151.746C58.9468 151.628 60.4165 151.739 61.8946 151.91C62.3771 151.968 62.8568 152.041 63.3347 152.118C63.5057 152.145 63.622 152.306 63.5943 152.477C63.5688 152.636 63.4285 152.747 63.2723 152.741C61.4117 152.694 59.5076 152.738 57.685 153.113C56.7275 153.31 56.4815 151.878 57.4529 151.746Z" fill="#6B1A4E"/>
<path d="M57.8006 155.462C57.6532 156.603 57.8657 157.798 58.2494 158.876C58.53 159.753 57.2538 160.198 56.9291 159.335C56.7318 157.99 56.8516 156.588 57.3401 155.311C57.4535 155.039 57.8689 155.178 57.8006 155.462Z" fill="#6B1A4E"/>
<path d="M62.5699 155.611C62.4226 156.752 62.635 157.946 63.0187 159.025C63.2993 159.902 62.0231 160.347 61.6984 159.483C61.5011 158.138 61.6209 156.736 62.1095 155.46C62.2228 155.188 62.6383 155.326 62.5699 155.611Z" fill="#6B1A4E"/>
<path d="M61.8487 160.536C58.2568 160.536 55.5293 159.794 54.0826 158.369C53.2932 157.591 52.9303 156.622 53.0611 155.641C53.3362 153.578 55.1653 152.541 56.3702 152.075C51.0797 145.435 52.2784 138.924 54.283 134.558C56.5113 129.705 60.0973 126.517 60.2489 126.383C60.4087 126.243 60.6246 126.183 60.8342 126.222C61.0438 126.261 61.2236 126.395 61.322 126.584C69.8247 142.929 72.8418 153.062 70.5456 157.562C69.8054 159.013 68.5385 159.881 66.7798 160.142C65.0054 160.406 63.3512 160.536 61.8487 160.536ZM60.5187 128.048C59.401 129.18 57.0789 131.774 55.5258 135.175C52.7615 141.227 53.6246 146.878 58.0916 151.972C58.2543 152.158 58.306 152.416 58.2272 152.65C58.1484 152.885 57.9507 153.059 57.7086 153.109C57.6801 153.114 54.7114 153.756 54.4357 155.824C54.3615 156.379 54.5703 156.903 55.0556 157.381C55.6975 158.014 58.4243 159.983 66.5761 158.771C67.8839 158.576 68.7784 157.975 69.3106 156.932C71.3231 152.987 68.3649 143.271 60.5187 128.048Z" fill="#6B1A4E"/>
<path d="M102.956 159.456C112.216 160.834 116.231 158.327 115.885 155.734C115.777 154.933 115.372 154.309 114.861 153.834C114.859 153.832 114.859 153.829 114.859 153.829C113.719 152.767 112.063 152.428 112.063 152.428C112.152 152.328 112.238 152.226 112.324 152.126C114.67 149.353 115.835 146.593 116.217 143.97C116.755 140.332 115.79 136.959 114.404 134.189C112.199 129.782 108.927 126.904 108.927 126.904C107.654 129.355 106.228 132.181 104.864 135.121C102.299 140.659 99.9554 146.61 99.2482 151.25C98.5716 155.69 99.3952 158.926 102.956 159.456Z" fill="#F99121"/>
<path d="M102.956 159.456C112.216 160.834 116.231 158.327 115.885 155.734C115.777 154.933 115.372 154.309 114.861 153.834C114.859 153.832 114.859 153.829 114.859 153.829C113.719 152.767 112.063 152.428 112.063 152.428C112.152 152.328 112.238 152.226 112.324 152.126C114.67 149.353 115.835 146.593 116.217 143.97C116.755 140.332 115.79 136.959 114.404 134.189C112.199 129.782 108.927 126.904 108.927 126.904C107.654 129.355 106.228 132.181 104.864 135.121C102.299 140.659 99.9554 146.61 99.2482 151.25C98.5716 155.69 99.3952 158.926 102.956 159.456Z" fill="url(#paint10_linear_39_4090)"/>
<path d="M102.956 159.455C112.216 160.834 116.231 158.327 115.885 155.734C115.538 153.138 112.063 152.428 112.063 152.428C112.152 152.328 112.238 152.226 112.324 152.126C112.324 152.126 110.563 150.123 107.293 151.341C104.024 152.561 102.64 150.72 100.399 150.947C99.9831 150.989 99.5977 151.097 99.2482 151.249C98.5716 155.689 99.3952 158.926 102.956 159.455Z" fill="#935125"/>
<path d="M109.969 145.296C111.597 146.857 114.232 147.251 116.217 143.97C116.755 140.332 115.79 136.96 114.404 134.189C114.146 133.845 113.869 133.582 113.577 133.451C113.577 133.451 115.028 137.805 114.368 141.089C113.71 144.375 111.234 144.819 110.541 143.041C109.847 141.264 111.619 140.723 112.421 141.818C112.39 141.73 111.816 140.168 110.308 140.593C108.76 141.031 108.33 143.721 109.969 145.296Z" fill="#935125"/>
<g opacity="0.25">
<path d="M102.956 159.456C112.216 160.834 116.231 158.327 115.885 155.734C115.777 154.933 115.372 154.309 114.861 153.834C114.925 153.987 116.181 157.071 110.299 157.204C104.271 157.34 99.7696 153.662 108.372 152.29L112.324 152.126C112.324 152.126 105.932 146.893 109.226 135.626C109.226 135.626 107.385 135.373 104.864 135.121C102.299 140.659 99.9554 146.61 99.2482 151.25C98.5716 155.69 99.3952 158.926 102.956 159.456Z" fill="#6B1A4E"/>
</g>
<path d="M111.945 153.113C110.123 152.738 108.22 152.694 106.361 152.741C106.186 152.748 106.039 152.611 106.035 152.436C106.03 152.277 106.145 152.143 106.298 152.118C106.776 152.041 107.256 151.969 107.738 151.911C108.953 151.763 110.178 151.677 111.406 151.703C111.661 151.711 111.895 151.718 112.18 151.746C112.562 151.785 112.841 152.125 112.802 152.507C112.764 152.924 112.351 153.216 111.945 153.113Z" fill="#6B1A4E"/>
<path d="M112.293 155.311C112.778 156.539 112.86 157.865 112.74 159.168C112.705 159.552 112.365 159.836 111.981 159.801C111.596 159.766 111.313 159.427 111.348 159.042C111.707 157.898 112.007 156.669 111.832 155.462C111.768 155.173 112.177 155.04 112.293 155.311Z" fill="#6B1A4E"/>
<path d="M107.523 155.46C108.009 156.688 108.091 158.014 107.97 159.317C107.936 159.701 107.596 159.984 107.211 159.95C106.827 159.915 106.544 159.575 106.578 159.191C106.937 158.047 107.237 156.817 107.063 155.611C106.998 155.322 107.408 155.188 107.523 155.46Z" fill="#6B1A4E"/>
<path d="M107.784 160.536C106.281 160.536 104.628 160.406 102.853 160.142C101.094 159.881 99.8276 159.013 99.0874 157.562C96.7911 153.061 99.8083 142.928 108.311 126.584C108.409 126.395 108.589 126.261 108.799 126.222C109.008 126.183 109.224 126.243 109.384 126.383C109.536 126.517 113.122 129.705 115.35 134.558C117.355 138.924 118.553 145.435 113.262 152.075C114.467 152.54 116.297 153.578 116.572 155.641C116.703 156.622 116.34 157.591 115.55 158.369C114.104 159.794 111.376 160.536 107.784 160.536ZM109.114 128.048C101.268 143.27 98.3098 152.987 100.322 156.932C100.854 157.975 101.749 158.576 103.057 158.771C111.209 159.982 113.935 158.013 114.577 157.381C115.063 156.903 115.271 156.379 115.197 155.824C114.921 153.756 111.952 153.114 111.923 153.108C111.681 153.058 111.484 152.883 111.406 152.649C111.327 152.415 111.379 152.157 111.541 151.972C116.008 146.878 116.871 141.227 114.107 135.174C112.554 131.774 110.232 129.18 109.114 128.048Z" fill="#6B1A4E"/>
<path d="M106.018 157.339C105.028 160.731 95.4905 161.144 90.0523 159.167C90.0523 159.167 87.3567 159.564 84.8248 159.564H84.8165C82.2873 159.564 79.5973 159.167 79.5973 159.167C74.159 161.144 64.622 160.731 63.6319 157.339C63.4683 156.779 63.46 156.266 63.5543 155.803C63.9564 153.779 66.3025 152.692 66.3025 152.692C58.9092 139.782 59.4222 128.221 61.0612 120.955C62.1843 115.983 63.8316 113.024 63.8316 113.024L74.9161 112.258L84.8165 111.573H84.8331L105.821 113.024C105.821 113.024 115.804 130.947 103.35 152.692C103.35 152.692 106.891 154.333 106.018 157.339Z" fill="#F99121"/>
<path d="M106.018 157.339C105.028 160.731 95.4905 161.144 90.0523 159.167C90.0523 159.167 87.3567 159.564 84.8248 159.564H84.8165C82.2873 159.564 79.5973 159.167 79.5973 159.167C74.159 161.144 64.622 160.731 63.6319 157.339C63.4683 156.779 63.46 156.266 63.5543 155.803C63.9564 153.779 66.3025 152.692 66.3025 152.692C58.9092 139.782 59.4222 128.221 61.0612 120.955C62.1843 115.983 63.8316 113.024 63.8316 113.024L74.9161 112.258L84.8165 111.573H84.8331L105.821 113.024C105.821 113.024 115.804 130.947 103.35 152.692C103.35 152.692 106.891 154.333 106.018 157.339Z" fill="url(#paint11_linear_39_4090)"/>
<path d="M60.7069 135.712C60.7069 135.712 62.3023 141.721 65.8589 143.253C69.4156 144.785 71.3431 142.265 70.1075 140.436C68.8719 138.607 67.1915 139.942 67.7104 141.424C67.7104 141.424 66.4996 139.793 67.9329 138.607C69.3662 137.421 72.208 138.78 72.6281 141.375C73.0481 143.97 71.6643 146.762 67.142 146.441C62.6198 146.12 61.9899 142.854 61.9899 142.854C61.9899 142.854 60.3509 137.585 60.7069 135.712Z" fill="#935125"/>
<path d="M62.2491 118.097C62.2491 118.097 60.717 126.994 62.6939 130.601C64.6709 134.209 67.0926 133.468 67.2903 131.194C67.2903 131.194 68.5753 133.649 66.9608 135.132C65.3083 136.65 60.6676 135.33 60.4369 129.531C60.2063 123.732 61.2936 121.359 62.2491 118.097Z" fill="#935125"/>
<path d="M108.943 135.712C108.943 135.712 107.348 141.721 103.791 143.253C100.235 144.785 98.3073 142.265 99.5428 140.436C100.778 138.607 102.459 139.942 101.94 141.424C101.94 141.424 103.151 139.793 101.717 138.607C100.284 137.421 97.4423 138.78 97.0223 141.375C96.6022 143.97 97.986 146.762 102.508 146.441C107.03 146.12 107.66 142.854 107.66 142.854C107.66 142.854 109.299 137.585 108.943 135.712Z" fill="#935125"/>
<path d="M107.401 118.097C107.401 118.097 108.933 126.994 106.956 130.601C104.979 134.209 102.558 133.468 102.36 131.194C102.36 131.194 101.075 133.649 102.69 135.132C104.342 136.65 108.983 135.33 109.213 129.531C109.444 123.732 108.357 121.359 107.401 118.097Z" fill="#935125"/>
<path d="M65.748 151.702C65.748 151.702 68.6412 149.135 71.4419 150.025C74.2425 150.915 75.8241 151.383 77.7021 150.77C79.5802 150.157 80.5163 150.963 80.5922 152.128C80.6681 153.293 83.5671 159.968 75.544 160.12C67.5209 160.272 63.3364 159.317 63.6659 156.318C63.9954 153.32 66.3018 152.694 66.3018 152.694L65.748 151.702Z" fill="#935125"/>
<path d="M103.902 151.702C103.902 151.702 101.009 149.135 98.2084 150.025C95.4078 150.915 93.8262 151.383 91.9481 150.77C90.0701 150.157 89.1339 150.963 89.0581 152.128C88.9822 153.293 86.0832 159.968 94.1063 160.12C102.129 160.272 106.314 159.317 105.984 156.318C105.655 153.32 103.348 152.694 103.348 152.694L103.902 151.702Z" fill="#935125"/>
<g opacity="0.25">
<path d="M92.7062 155.735C92.3013 153.766 94.8527 152.807 96.5221 152.393C91.4472 153.106 92.3235 149.457 92.5065 144.934C92.5502 143.863 92.6844 142.889 92.8674 142.019C93.4119 139.431 94.9935 137.166 97.221 135.74C106.699 129.671 108.528 121.167 108.572 120.956C107.448 115.984 105.801 113.025 105.801 113.025L94.7167 112.26C94.6828 112.347 94.6486 112.435 94.6141 112.525C91.1526 121.48 78.4801 121.48 75.0186 112.525C74.9841 112.435 74.9499 112.347 74.916 112.26L63.8315 113.025C63.8315 113.025 62.1842 115.984 61.061 120.956C61.1047 121.167 62.9335 129.669 72.4082 135.737C74.7016 137.206 76.2835 139.564 76.8097 142.237C76.9699 143.05 77.0861 143.952 77.1262 144.934C77.3092 149.457 78.1856 153.106 73.1106 152.394C74.7801 152.807 77.3314 153.766 76.9265 155.735C76.3885 158.364 64.4027 158.317 63.5541 155.805C63.4599 156.268 63.4682 156.781 63.6318 157.341C64.6218 160.733 74.1589 161.146 79.5971 159.168C79.5971 159.168 82.2872 159.565 84.8163 159.565C87.3455 159.565 90.0355 159.168 90.0355 159.168C95.4737 161.146 105.011 160.733 106.001 157.341C106.164 156.781 106.173 156.268 106.078 155.805C105.23 158.317 93.2442 158.364 92.7062 155.735Z" fill="#6B1A4E"/>
</g>
<path d="M78.6186 158.761C80.1941 157.942 80.1325 155.861 80.0617 154.3C79.9904 152.372 79.8435 150.426 79.7043 148.484C79.4415 144.592 79.0082 140.713 78.8212 136.814C78.8126 136.631 78.9548 136.475 79.1386 136.466C79.3085 136.458 79.4546 136.579 79.4827 136.743C79.8131 138.672 80.0489 140.611 80.2655 142.552C80.7264 146.945 81.3016 151.32 81.4206 155.748C81.437 157.429 80.7425 159.392 79.0559 160.077C78.1807 160.342 77.7577 159.073 78.6186 158.761Z" fill="#6B1A4E"/>
<path d="M90.5944 160.077C88.3215 159.111 88.0768 156.382 88.277 154.243C88.3921 152.273 88.5678 150.328 88.7602 148.381C89.1754 144.492 89.5265 140.603 90.1676 136.743C90.1987 136.561 90.371 136.439 90.5525 136.47C90.72 136.499 90.8367 136.649 90.8292 136.814C90.7424 138.766 90.5797 140.711 90.4114 142.653C90.0773 147 89.6242 151.37 89.5674 155.721C89.5784 156.879 89.9469 158.226 91.0318 158.761C91.8903 159.068 91.4707 160.345 90.5944 160.077Z" fill="#6B1A4E"/>
<path d="M65.5144 152.335C68.3699 150.943 71.8641 151.41 74.5704 152.927C74.946 153.138 75.301 153.39 75.6579 153.631C75.7621 153.704 75.7871 153.848 75.7138 153.952C75.6525 154.039 75.5422 154.071 75.4468 154.036C74.3033 153.589 73.1264 153.148 71.9151 152.936C70.0155 152.568 67.956 152.699 66.2034 153.539C65.3891 153.997 64.7027 152.806 65.5144 152.335Z" fill="#6B1A4E"/>
<path d="M68.0032 155.697C67.5604 156.866 67.6693 158.268 68.3334 159.333C68.8283 160.219 67.4818 160.878 67.0876 159.942C66.6459 158.832 66.5856 157.575 66.947 156.441C67.0641 156.068 67.2044 155.73 67.4177 155.374C67.5123 155.216 67.7172 155.164 67.8753 155.259C68.029 155.35 68.0768 155.542 68.0032 155.697Z" fill="#6B1A4E"/>
<path d="M73.2174 155.895C72.7746 157.064 72.8835 158.466 73.5476 159.531C74.0425 160.417 72.696 161.077 72.3017 160.14C71.86 159.031 71.7998 157.773 72.1611 156.639C72.2783 156.266 72.4186 155.929 72.6319 155.572C72.7264 155.414 72.9313 155.363 73.0894 155.457C73.2431 155.549 73.291 155.74 73.2174 155.895Z" fill="#6B1A4E"/>
<path d="M103.447 153.539C101.319 152.516 98.7926 152.563 96.554 153.214C95.7593 153.419 94.9741 153.748 94.2037 154.037C93.958 154.129 93.7738 153.78 93.9923 153.631C94.5007 153.271 95.0919 152.898 95.6579 152.626C98.2501 151.355 101.487 151.041 104.136 152.336C104.945 152.805 104.266 153.998 103.447 153.539Z" fill="#6B1A4E"/>
<path d="M102.233 155.374C102.836 156.404 103.059 157.597 102.879 158.774C102.75 159.412 102.596 160.648 101.669 160.355C101.307 160.222 101.122 159.822 101.255 159.461C101.408 159.144 101.604 158.847 101.703 158.502C102.01 157.617 101.974 156.57 101.647 155.696C101.466 155.313 102.01 155.014 102.233 155.374Z" fill="#6B1A4E"/>
<path d="M97.0184 155.572C97.6214 156.602 97.8452 157.795 97.6649 158.972C97.536 159.61 97.3817 160.846 96.4544 160.553C96.0932 160.42 95.9082 160.02 96.0409 159.659C96.1934 159.342 96.3896 159.045 96.4887 158.701C96.796 157.815 96.7599 156.768 96.4329 155.895C96.2514 155.511 96.7959 155.212 97.0184 155.572Z" fill="#6B1A4E"/>
<path d="M72.0719 161.047C69.3401 161.047 66.7595 160.623 65.0915 159.777C63.9467 159.197 63.2321 158.442 62.9675 157.533C62.2609 155.108 63.9635 153.303 65.3542 152.425C59.1586 141.266 58.8534 131.168 59.7084 124.614C60.6538 117.366 63.1205 112.873 63.2253 112.685C63.3393 112.481 63.5492 112.347 63.7832 112.331L84.7688 110.881C84.7875 110.88 84.8046 110.879 84.8251 110.88C84.8457 110.88 84.8631 110.88 84.8815 110.881L105.867 112.331C106.101 112.347 106.311 112.481 106.425 112.685C106.53 112.873 108.997 117.366 109.942 124.614C110.797 131.168 110.492 141.266 104.296 152.425C105.687 153.303 107.389 155.108 106.683 157.533C106.418 158.442 105.704 159.197 104.559 159.777C101.293 161.434 94.5289 161.473 89.981 159.878C89.3373 159.966 87.0388 160.257 84.8251 160.257C82.6115 160.257 80.313 159.966 79.6693 159.878C77.4441 160.658 74.6889 161.047 72.0719 161.047ZM64.2679 113.688C63.6979 114.837 61.8384 118.933 61.0752 124.856C60.2441 131.305 60.5807 141.309 66.9033 152.349C67 152.518 67.0214 152.719 66.9623 152.904C66.9033 153.089 66.7695 153.241 66.5932 153.323C66.4721 153.379 63.6028 154.756 64.2988 157.145C64.4518 157.671 64.9296 158.141 65.7185 158.541C68.6856 160.045 75.1875 160.034 79.3597 158.516C79.4678 158.477 79.5845 158.466 79.6971 158.482C79.7237 158.486 82.3764 158.87 84.8251 158.87C87.2739 158.87 89.9266 158.486 89.9531 158.482C90.0663 158.466 90.1828 158.477 90.2906 158.516C94.4629 160.034 100.965 160.045 103.932 158.541C104.721 158.141 105.199 157.671 105.352 157.145C106.052 154.741 103.087 153.337 103.057 153.323C102.881 153.241 102.747 153.089 102.688 152.904C102.629 152.719 102.65 152.518 102.747 152.349C109.07 141.309 109.406 131.305 108.575 124.856C107.812 118.933 105.953 114.837 105.383 113.688L84.8251 112.268L64.2679 113.688Z" fill="#6B1A4E"/>
<path d="M108.342 118.739L106.858 115.775C106.858 115.775 107.845 123.831 100.382 129.76L99.8889 126.695C99.8889 126.695 94.1428 135.362 84.8248 138.723C75.5068 135.362 69.7608 126.695 69.7608 126.695L69.2671 129.76C61.8044 123.831 62.7917 115.775 62.7917 115.775L61.3108 118.739C61.3108 118.739 61.3108 118.734 61.308 118.722C58.7983 109.643 64.9853 106.465 64.9853 106.465L62.4478 105.971C70.4208 98.5251 84.8248 102.677 84.8248 102.677C84.8248 102.677 99.2288 98.5251 107.205 105.971L104.667 106.465C104.667 106.465 110.86 109.646 108.342 118.739Z" fill="#FFF5E9"/>
<g opacity="0.25">
<path d="M103.347 109.052C103.347 109.052 105.224 116.712 102.163 120.963C102.163 120.963 101.766 117.702 100.233 116.021C100.233 116.021 97.7008 126.335 84.8248 133.451C71.9488 126.335 69.4168 116.021 69.4168 116.021C67.8833 117.702 67.4867 120.963 67.4867 120.963C64.4251 116.712 66.3025 109.052 66.3025 109.052C60.5925 111.978 61.2636 118.353 61.308 118.722C61.3108 118.733 61.3108 118.739 61.3108 118.739L62.7917 115.774C62.7917 115.774 61.8044 123.831 69.2671 129.76L69.7607 126.695C69.7607 126.695 75.5068 135.362 84.8248 138.723C94.1427 135.362 99.8888 126.695 99.8888 126.695L100.382 129.76C107.845 123.831 106.858 115.774 106.858 115.774L108.339 118.739C108.339 118.739 108.339 118.733 108.342 118.722C108.386 118.353 109.057 111.978 103.347 109.052Z" fill="#6B1A4E"/>
</g>
<path d="M84.8252 139.415C84.7455 139.415 84.666 139.402 84.5899 139.374C77.311 136.749 72.2298 131.062 70.1824 128.441L69.9517 129.87C69.9127 130.113 69.7475 130.317 69.5179 130.406C69.2885 130.495 69.0288 130.456 68.8359 130.303C63.8948 126.376 62.5079 121.594 62.1586 118.592L61.9303 119.049C61.8019 119.305 61.5303 119.456 61.2432 119.429C60.9578 119.401 60.7186 119.2 60.642 118.924C58.7779 112.198 61.5178 108.47 63.3142 106.846L62.3143 106.651C62.0587 106.601 61.8526 106.412 61.7805 106.162C61.7087 105.911 61.7835 105.642 61.9739 105.464C69.7302 98.2202 82.9953 101.463 84.8252 101.956C86.6551 101.463 99.9202 98.2201 107.677 105.464C107.867 105.642 107.942 105.911 107.87 106.162C107.798 106.412 107.592 106.601 107.336 106.651L106.337 106.846C108.133 108.47 110.872 112.198 109.008 118.924C108.932 119.2 108.693 119.401 108.407 119.429C108.123 119.456 107.849 119.305 107.72 119.049L107.492 118.592C107.142 121.594 105.756 126.376 100.814 130.303C100.622 130.456 100.362 130.495 100.133 130.406C99.9028 130.317 99.7377 130.113 99.6987 129.87L99.4679 128.441C97.4205 131.062 92.3394 136.749 85.0605 139.374C84.9844 139.402 84.9048 139.415 84.8252 139.415ZM69.7616 126.003C69.9907 126.003 70.209 126.116 70.3392 126.312C70.395 126.396 75.9767 134.683 84.8252 137.984C93.6875 134.678 99.2553 126.397 99.3109 126.313C99.4688 126.075 99.755 125.958 100.035 126.018C100.314 126.078 100.528 126.303 100.573 126.585L100.872 128.435C106.93 122.926 106.178 115.93 106.169 115.856C106.129 115.522 106.336 115.206 106.659 115.11C106.981 115.013 107.327 115.162 107.478 115.463L108.082 116.672C109.172 109.652 104.403 107.109 104.35 107.082C104.087 106.947 103.939 106.66 103.98 106.368C104.022 106.075 104.244 105.841 104.534 105.784L105.645 105.568C97.8839 99.7409 85.151 103.304 85.017 103.342C84.8919 103.378 84.7586 103.378 84.6335 103.342C84.4994 103.304 71.7663 99.7412 64.0059 105.568L65.1168 105.784C65.4066 105.841 65.6289 106.075 65.6706 106.368C65.712 106.66 65.5636 106.947 65.3007 107.082C65.0891 107.192 60.4671 109.703 61.5669 116.675L62.1727 115.463C62.3238 115.161 62.6694 115.011 62.993 115.109C63.3161 115.207 63.5222 115.522 63.481 115.858C63.4724 115.93 62.7209 122.926 68.7789 128.435L69.0773 126.585C69.1226 126.303 69.3362 126.079 69.6152 126.018C69.6638 126.008 69.7131 126.003 69.7616 126.003Z" fill="#6B1A4E"/>
<path d="M127.943 83.5237C127.943 83.5237 128.808 83.8953 130.242 84.0922C130.242 84.0922 120.424 105.33 85.0993 106.619C85.005 106.625 84.9107 106.627 84.8164 106.63C49.5385 105.452 39.5466 84.425 39.3941 84.095C39.3913 84.0923 39.3913 84.0922 39.3913 84.0922C40.8251 83.8953 41.6903 83.5237 41.6903 83.5237C39.4412 82.2148 38.8478 79.9907 38.8478 79.9907C39.9099 79.9907 42.159 79.7439 42.159 79.7439C40.997 78.7788 40.8001 77.0233 40.8001 77.0233C43.3681 75.8863 45.0986 74.899 45.0986 74.899C45.7919 67.783 47.2256 61.2909 47.2256 61.2909C42.2255 37.4024 46.1025 24.7677 48.8535 19.3655C50.0044 17.1025 52.7526 16.1735 55.0378 17.28C64.0091 21.6201 73.2716 36.0519 73.2716 36.0519C78.8069 34.4711 84.8164 34.4711 84.8164 34.4711C84.8164 34.4711 90.826 34.4711 96.3613 36.0519C96.3613 36.0519 105.624 21.6201 114.595 17.28C116.88 16.1735 119.628 17.1025 120.779 19.3655C123.53 24.7677 127.407 37.4024 122.407 61.2909C122.407 61.2909 123.841 67.783 124.534 74.899C124.534 74.899 126.265 75.8863 128.833 77.0233C128.833 77.0233 128.636 78.7788 127.474 79.7439C127.474 79.7439 129.723 79.9907 130.785 79.9907C130.785 79.9907 130.192 82.2148 127.943 83.5237Z" fill="#F99121"/>
<path d="M127.943 83.5237C127.943 83.5237 128.808 83.8953 130.242 84.0922C130.242 84.0922 120.424 105.33 85.0993 106.619C85.005 106.625 84.9107 106.627 84.8164 106.63C49.5385 105.452 39.5466 84.425 39.3941 84.095C39.3913 84.0923 39.3913 84.0922 39.3913 84.0922C40.8251 83.8953 41.6903 83.5237 41.6903 83.5237C39.4412 82.2148 38.8478 79.9907 38.8478 79.9907C39.9099 79.9907 42.159 79.7439 42.159 79.7439C40.997 78.7788 40.8001 77.0233 40.8001 77.0233C43.3681 75.8863 45.0986 74.899 45.0986 74.899C45.7919 67.783 47.2256 61.2909 47.2256 61.2909C42.2255 37.4024 46.1025 24.7677 48.8535 19.3655C50.0044 17.1025 52.7526 16.1735 55.0378 17.28C64.0091 21.6201 73.2716 36.0519 73.2716 36.0519C78.8069 34.4711 84.8164 34.4711 84.8164 34.4711C84.8164 34.4711 90.826 34.4711 96.3613 36.0519C96.3613 36.0519 105.624 21.6201 114.595 17.28C116.88 16.1735 119.628 17.1025 120.779 19.3655C123.53 24.7677 127.407 37.4024 122.407 61.2909C122.407 61.2909 123.841 67.783 124.534 74.899C124.534 74.899 126.265 75.8863 128.833 77.0233C128.833 77.0233 128.636 78.7788 127.474 79.7439C127.474 79.7439 129.723 79.9907 130.785 79.9907C130.785 79.9907 130.192 82.2148 127.943 83.5237Z" fill="url(#paint12_linear_39_4090)"/>
<path d="M130.785 79.9907C129.723 79.9907 127.474 79.7439 127.474 79.7439C128.636 78.7788 128.833 77.0234 128.833 77.0234C126.265 75.8863 124.534 74.8991 124.534 74.8991C124.534 74.8991 114.879 73.3335 106.791 77.6251C97.1037 82.7656 95.8566 75.7338 84.8164 75.7338C73.7763 75.7338 72.5292 82.7656 62.8415 77.6251C54.7537 73.3335 45.0986 74.8991 45.0986 74.8991C45.0986 74.8991 43.3681 75.8863 40.8001 77.0234C40.8001 77.0234 40.997 78.7788 42.159 79.7439C42.159 79.7439 39.9099 79.9907 38.8478 79.9907C38.8478 79.9907 39.4412 82.2148 41.6903 83.5238C41.6903 83.5238 40.8251 83.8954 39.3913 84.0923C39.3913 84.0923 39.3913 84.0923 39.3941 84.0951C39.5462 84.4242 49.4871 105.336 84.5335 106.618C84.5335 106.618 84.5335 106.619 84.5336 106.619C84.6278 106.625 84.7221 106.627 84.8164 106.63C84.9107 106.627 85.005 106.625 85.0993 106.619C85.0993 106.619 85.0993 106.618 85.0993 106.618C120.146 105.336 130.087 84.4242 130.239 84.0951C130.241 84.0923 130.241 84.0923 130.241 84.0923C128.808 83.8954 127.942 83.5238 127.942 83.5238C130.192 82.2148 130.785 79.9907 130.785 79.9907Z" fill="#FFF5E9"/>
<g opacity="0.25">
<path d="M84.8164 100.996C54.2474 98.9353 39.6215 84.3233 39.3941 84.0959C39.5466 84.4259 49.5385 105.452 84.8164 106.631C120.094 105.452 130.086 84.4259 130.239 84.0959C130.011 84.3233 115.385 98.9353 84.8164 100.996Z" fill="#6B1A4E"/>
</g>
<path d="M57.3062 39.6106C57.3062 39.6106 52.1675 40.426 55.3317 44.9602C55.3317 44.9602 54.8048 45.8698 54.0394 47.3035C52.711 49.7939 50.6727 53.8649 49.4497 57.5034C49.4497 57.5034 48.8729 54.7052 48.6732 51.6713C48.4763 48.6374 47.8163 37.6333 48.8729 30.6504C49.7132 25.0818 51.0554 23.0324 51.5684 22.4278C51.696 22.2753 51.7709 22.2143 51.7709 22.2143C51.7709 22.2143 56.4021 26.3907 60.684 35.0265C60.684 35.0265 53.5014 33.4347 57.3062 39.6106Z" fill="#FFF5E9"/>
<path d="M51.9718 21.9932C53.067 22.7948 53.9686 23.7629 54.8261 24.7732C56.53 26.7916 58.0665 28.9642 59.4124 31.2376C60.0941 32.3707 60.7129 33.5397 61.3061 34.7205C61.4791 35.0599 61.3441 35.4753 61.0047 35.6481C60.8533 35.7253 60.6895 35.7404 60.5349 35.7055C59.5292 35.5159 57.7974 35.3309 57.0837 36.0491C56.4881 36.9104 57.4237 38.4094 57.8969 39.249C58.0966 39.5777 57.9918 40.006 57.663 40.2056C57.5845 40.253 57.501 40.2836 57.4151 40.2974C56.9309 40.3886 56.3919 40.5804 55.9707 40.8357C54.3757 41.7141 55.0622 43.4068 55.9115 44.5836C56.0591 44.8099 56.0568 45.091 55.9302 45.3099C55.3592 46.292 54.8138 47.3107 54.2663 48.3179C52.5985 51.339 51.1981 54.4779 49.7725 57.6181C49.69 57.7905 49.4834 57.8635 49.311 57.7811C49.163 57.7103 49.0884 57.5479 49.1223 57.3943C49.3754 56.2474 49.7538 55.1374 50.1815 54.0523C51.4822 50.801 53.0007 47.6601 54.7312 44.6135L54.7619 45.3581C53.9858 44.2485 53.2734 42.7408 53.7821 41.3424C54.3111 39.9145 55.7973 39.2008 57.1983 38.9278L56.7164 39.9762C53.9914 35.7141 56.1207 33.4187 60.8353 34.3519C60.8351 34.3517 60.0639 35.3373 60.0639 35.3365C58.9127 33.0597 57.621 30.7412 56.2244 28.613C55.5149 27.5347 54.7724 26.4773 53.9816 25.4579C53.1884 24.4444 52.3728 23.4345 51.5708 22.4378C51.3367 22.1882 51.6789 21.7738 51.9718 21.9932Z" fill="#6B1A4E"/>
<path d="M120.184 57.5039C118.257 51.7708 114.302 44.9616 114.302 44.9616C117.464 40.4259 112.326 39.6125 112.326 39.6125C116.132 33.4346 108.948 35.0286 108.948 35.0286C113.23 26.392 117.861 22.2155 117.861 22.2155C117.861 22.2155 119.707 23.6652 120.761 30.6504C121.815 37.6356 121.156 48.6382 120.959 51.6719C120.761 54.7056 120.184 57.5039 120.184 57.5039Z" fill="#FFF5E9"/>
<g opacity="0.25">
<path d="M57.3062 39.6106C57.3062 39.6106 52.1674 40.426 55.3317 44.9602C55.3317 44.9602 54.8048 45.8698 54.0393 47.3035C54.0088 47.2675 53.9756 47.2286 53.9451 47.1898C50.4536 42.8414 54.6716 34.6688 54.3971 32.2977C54.1225 29.9238 51.574 22.4361 51.574 22.4361L51.5684 22.4278C51.696 22.2753 51.7709 22.2143 51.7709 22.2143C51.7709 22.2143 56.4021 26.3907 60.684 35.0265C60.684 35.0265 53.5013 33.4347 57.3062 39.6106Z" fill="#6B1A4E"/>
</g>
<g opacity="0.25">
<path d="M112.327 39.6106C112.327 39.6106 117.465 40.426 114.301 44.9602C114.301 44.9602 114.828 45.8698 115.593 47.3035C115.624 47.2675 115.657 47.2286 115.688 47.1898C119.179 42.8414 114.961 34.6688 115.236 32.2977C115.51 29.9238 118.059 22.4361 118.059 22.4361L118.064 22.4278C117.937 22.2753 117.862 22.2143 117.862 22.2143C117.862 22.2143 113.231 26.3907 108.949 35.0265C108.949 35.0265 116.131 33.4347 112.327 39.6106Z" fill="#6B1A4E"/>
</g>
<path d="M118.062 22.4377C115.598 25.4148 113.268 28.5299 111.394 31.9202C110.826 32.8801 110.093 34.3322 109.569 35.3364C109.569 35.3372 108.798 34.3516 108.797 34.3518C113.522 33.4185 115.637 35.7192 112.916 39.9761L112.434 38.9277C112.806 38.9949 113.098 39.0803 113.439 39.2029C116.504 40.309 116.622 42.9707 114.871 45.358L114.902 44.6134C116.058 46.6484 117.11 48.7116 118.08 50.8366C119.02 52.97 119.997 55.1057 120.51 57.3942C120.595 57.7769 120.035 57.9967 119.858 57.6135C118.877 55.5325 118.01 53.4184 116.957 51.3738C115.922 49.3329 114.839 47.2907 113.703 45.3098C113.562 45.0684 113.584 44.7787 113.734 44.5637C114.189 43.8966 114.575 43.2087 114.634 42.4358C114.727 41.1743 113.292 40.501 112.211 40.2962C111.735 40.2231 111.48 39.653 111.736 39.2489C112.092 38.6627 112.411 38.0563 112.603 37.4592C112.737 36.9805 112.858 36.4178 112.549 36.0491C111.834 35.3309 110.106 35.517 109.098 35.7055C108.719 35.7935 108.34 35.5502 108.265 35.1685C108.233 35.0104 108.259 34.8538 108.327 34.7204C108.92 33.5397 109.539 32.3706 110.22 31.2375C110.89 30.1178 111.623 28.9707 112.376 27.9087C113.148 26.8347 113.953 25.7844 114.807 24.7732C115.664 23.7629 116.566 22.7947 117.661 21.9932C117.795 21.8951 117.983 21.9242 118.081 22.0582C118.167 22.1759 118.155 22.3336 118.062 22.4377Z" fill="#6B1A4E"/>
<path d="M84.8164 107.323C84.8088 107.323 84.801 107.323 84.7934 107.323C66.2378 106.704 54.728 100.53 48.3396 95.4594C41.3784 89.9345 38.8652 84.6076 38.7615 84.3837C38.6694 84.1842 38.6772 83.9528 38.7826 83.7601C38.8879 83.5672 39.0786 83.4358 39.2961 83.4058C39.614 83.362 39.9022 83.309 40.1565 83.2539C38.6488 81.8778 38.1996 80.2525 38.1771 80.1691C38.1219 79.961 38.166 79.7389 38.2974 79.5681C38.4287 79.3973 38.6318 79.2972 38.8471 79.2972C39.3471 79.2972 40.1362 79.2386 40.8103 79.179C40.24 78.1873 40.1173 77.1623 40.1105 77.1028C40.0767 76.8018 40.2421 76.5136 40.5189 76.3912C42.4071 75.5561 43.843 74.7978 44.4453 74.4696C45.0868 68.1201 46.3036 62.2804 46.5157 61.2895C41.5209 37.2994 45.4467 24.5308 48.2362 19.0508C49.5486 16.4711 52.7348 15.3971 55.339 16.6568C63.6145 20.6604 71.9276 32.765 73.5737 35.2496C78.9898 33.795 84.5744 33.778 84.8165 33.778C85.0586 33.778 90.6433 33.7951 96.0594 35.2496C97.7054 32.765 106.019 20.6603 114.294 16.6568C116.897 15.3975 120.084 16.4709 121.397 19.0508C124.186 24.5308 128.112 37.2994 123.117 61.2895C123.329 62.2804 124.546 68.12 125.188 74.4695C125.791 74.7982 127.23 75.5576 129.114 76.3912C129.391 76.5136 129.556 76.8017 129.523 77.1028C129.516 77.1622 129.393 78.1874 128.823 79.179C129.497 79.2386 130.286 79.2972 130.786 79.2972C131.001 79.2972 131.204 79.3973 131.336 79.5681C131.467 79.7389 131.511 79.961 131.456 80.1691C131.433 80.2525 130.984 81.8778 129.477 83.2539C129.731 83.309 130.019 83.362 130.337 83.4058C130.554 83.4358 130.745 83.5672 130.85 83.7601C130.956 83.9528 130.964 84.1842 130.872 84.3837C130.768 84.6076 128.255 89.9346 121.293 95.4594C114.905 100.53 103.395 106.704 84.8397 107.323C84.8319 107.323 84.824 107.323 84.8164 107.323ZM40.4546 84.6083C41.4234 86.2859 44.0928 90.3355 49.2699 94.4275C55.4876 99.342 66.7012 105.327 84.8164 105.936C102.932 105.327 114.145 99.3421 120.363 94.4275C125.54 90.3355 128.209 86.2861 129.178 84.6083C128.249 84.4065 127.7 84.1743 127.671 84.1616C127.43 84.0584 127.268 83.8282 127.252 83.5667C127.236 83.3053 127.369 83.0571 127.595 82.9253C128.737 82.2599 129.403 81.3169 129.761 80.6428C128.689 80.5736 127.467 80.4401 127.398 80.4325C127.122 80.4022 126.89 80.2092 126.81 79.9427C126.73 79.6761 126.817 79.3875 127.031 79.2098C127.623 78.7187 127.913 77.9362 128.045 77.4316C125.756 76.3935 124.257 75.5401 124.19 75.5017C123.994 75.3901 123.865 75.1908 123.844 74.9668C123.164 67.9725 121.746 61.5058 121.731 61.4413C121.71 61.3453 121.71 61.2459 121.73 61.1498C126.684 37.4818 122.873 25.0084 120.161 19.6797C119.188 17.7677 116.826 16.9715 114.898 17.905C106.207 22.1096 97.0375 36.2847 96.9458 36.4275C96.7805 36.6848 96.4659 36.8038 96.172 36.7196C90.7919 35.1824 84.8755 35.1646 84.8165 35.1646C84.7575 35.1646 78.8341 35.1844 73.461 36.7196C73.1669 36.8036 72.8525 36.6848 72.6873 36.4275C72.5955 36.2848 63.4261 22.1096 54.7351 17.905C52.8064 16.9721 50.445 17.7677 49.472 19.6796C46.7598 25.0084 42.9493 37.4818 47.9032 61.1498C47.9232 61.246 47.9227 61.3454 47.9016 61.4414C47.8872 61.5058 46.4692 67.9764 45.7894 74.9669C45.7678 75.1908 45.6386 75.3902 45.4433 75.5018C45.3765 75.5401 43.8772 76.3936 41.5879 77.4317C41.7201 77.9357 42.0093 78.7186 42.6013 79.2099C42.8155 79.3877 42.9025 79.6762 42.8226 79.9427C42.7424 80.2093 42.5108 80.4022 42.2344 80.4326C42.1653 80.4402 40.9442 80.5737 39.872 80.6429C40.2294 81.3165 40.8954 82.2598 42.038 82.9253C42.2644 83.0571 42.3971 83.3053 42.3812 83.5668C42.3652 83.8282 42.2032 84.0585 41.9625 84.1616C41.9325 84.1743 41.3838 84.4065 40.4546 84.6083Z" fill="#6B1A4E"/>
<path d="M124.396 77.0137C124.146 82.5213 120.752 101.385 86.4748 106.903C85.9285 106.992 85.3766 107.037 84.8247 107.037C84.2673 107.037 83.7099 106.992 83.158 106.903C48.8812 101.385 45.4868 82.5213 45.2372 77.0137C45.2234 76.6892 45.2705 76.3703 45.3703 76.0736C45.5672 75.5079 45.9583 75.0142 46.4907 74.6981C48.2961 73.6332 50.7337 72.4296 50.7337 72.4296C48.9533 67.6347 52.0676 63.9297 52.0676 63.9297C51.6738 44.4146 61.8238 32.8253 65.9143 28.9595C66.9015 28.0249 68.4711 28.0942 69.3586 29.1203C72.6559 32.9363 74.2588 39.5615 74.2588 39.5615C79.4004 38.1305 84.8164 38.0307 84.8164 38.0307C84.8164 38.0307 90.2325 38.1305 95.374 39.5615C95.374 39.5615 96.9769 32.9363 100.274 29.1203C101.162 28.0942 102.731 28.0249 103.719 28.9595C107.809 32.8253 117.959 44.4146 117.565 63.9297C117.565 63.9297 120.68 67.6347 118.899 72.4296C118.899 72.4296 121.337 73.6332 123.142 74.6981C123.955 75.1806 124.437 76.0708 124.396 77.0137Z" fill="white"/>
<g opacity="0.25">
<path d="M124.279 76.0717C123.353 79.8016 117.019 99.2613 84.8248 103.366C52.6307 99.2613 46.2967 79.8016 45.3704 76.0717C45.2706 76.3684 45.2234 76.6873 45.2373 77.0118C45.4869 82.5194 48.8813 101.383 83.1581 106.901C83.71 106.99 84.2674 107.035 84.8248 107.035C85.3822 107.035 85.9396 106.99 86.4915 106.901C120.768 101.383 124.163 82.5194 124.412 77.0118C124.426 76.6873 124.379 76.3684 124.279 76.0717Z" fill="#6B1A4E"/>
</g>
<g opacity="0.25">
<path d="M96.8575 90.3308C96.8575 90.3308 93.0294 91.4783 89.6881 90.3308C86.3468 89.1833 86.3962 86.0697 86.3962 86.0697H84.8252H83.2541C83.2541 86.0697 83.3035 89.1834 79.9622 90.3308C76.621 91.4783 72.7928 90.3308 72.7928 90.3308C72.1009 92.2691 78.1635 94.0763 81.1713 93.5486C84.1791 93.0208 84.8251 87.8022 84.8251 87.8022C84.8251 87.8022 85.4711 93.0208 88.479 93.5486C91.4868 94.0763 97.5495 92.2691 96.8575 90.3308Z" fill="#6B1A4E"/>
</g>
<g opacity="0.25">
<path d="M45.8124 75.2826C45.8124 75.2826 49.4821 76.904 52.8509 75.9856C53.2099 75.8877 53.3321 75.44 53.0686 75.1772C52.28 74.3908 50.9294 72.8265 50.5852 71.0502L50.7335 72.4284L45.8124 75.2826Z" fill="#6B1A4E"/>
</g>
<g opacity="0.15">
<path d="M123.838 75.2826C123.838 75.2826 120.168 76.904 116.8 75.9856C116.441 75.8877 116.318 75.44 116.582 75.1772C117.37 74.3908 118.721 72.8265 119.065 71.0502L118.917 72.4284L123.838 75.2826Z" fill="#6B1A4E"/>
</g>
<path d="M92.1642 80.7226C93.3807 72.6783 97.8135 68.4013 105.132 67.978C107.771 67.8253 109.597 67.6027 110.834 67.3932C112.031 67.1903 113.164 66.6796 114.071 65.8707C114.143 65.8058 114.215 65.7385 114.286 65.6688C114.561 65.3968 115.028 65.5483 115.077 65.9324C115.21 66.9858 115.345 68.6362 115.099 69.8627C115.097 69.8743 115.094 69.8829 115.092 69.894C114.431 75.2456 109.363 79.4857 102.703 80.006C98.7412 80.3154 96.3421 81.4468 95.2257 82.1274C95.1853 82.1524 94.0446 82.8631 93.1642 83.8593C92.931 84.1231 92.4992 84.0439 92.3816 83.7121C92.1637 83.0974 91.9572 82.0915 92.1642 80.7226Z" fill="#FF365D"/>
<path d="M77.4687 80.7226C76.2522 72.6783 71.8194 68.4013 64.5012 67.978C61.8622 67.8253 60.0358 67.6027 58.7991 67.3932C57.6014 67.1903 56.4686 66.6796 55.5623 65.8707C55.4896 65.8058 55.4176 65.7385 55.3471 65.6688C55.0715 65.3968 54.6046 65.5483 54.556 65.9324C54.4227 66.9858 54.2879 68.6362 54.5335 69.8627C54.5358 69.8743 54.5386 69.8829 54.541 69.894C55.2021 75.2456 60.2702 79.4857 66.9301 80.006C70.8917 80.3154 73.2908 81.4468 74.4072 82.1274C74.4475 82.1524 75.5883 82.8631 76.4687 83.8593C76.7018 84.1231 77.1337 84.0439 77.2513 83.7121C77.4692 83.0974 77.6757 82.0915 77.4687 80.7226Z" fill="#FF365D"/>
<path d="M70.4864 41.3837C68.8014 42.2338 64.0828 44.7147 59.5914 47.9988C58.9373 48.477 58.0492 47.8543 58.2884 47.0802C59.3678 43.5865 61.9075 37.0713 66.7814 32.7627C67.2042 32.389 67.8701 32.5426 68.0989 33.0584C68.6909 34.3924 69.775 36.976 70.9023 40.3679C71.0337 40.7635 70.8586 41.196 70.4864 41.3837Z" fill="#FF365D"/>
<path d="M99.1465 41.3837C100.832 42.2338 105.55 44.7147 110.042 47.9988C110.696 48.477 111.584 47.8543 111.345 47.0802C110.265 43.5865 107.725 37.0713 102.852 32.7627C102.429 32.389 101.763 32.5426 101.534 33.0584C100.942 34.3924 99.8579 36.976 98.7306 40.3679C98.5991 40.7635 98.7743 41.196 99.1465 41.3837Z" fill="#FF365D"/>
<path d="M96.12 51.8104C96.12 57.5759 91.0589 62.2516 84.8164 62.2516C78.5739 62.2516 73.5128 57.5759 73.5128 51.8104C73.5128 47.67 76.1224 44.0926 79.9051 42.4037C78.1025 43.9123 76.9488 46.2363 76.9488 48.8431C76.9488 53.3939 80.4708 57.0851 84.8164 57.0851C89.162 57.0851 92.684 53.3939 92.684 48.8431C92.684 46.2363 91.5303 43.9123 89.7278 42.4037C93.5104 44.0926 96.12 47.67 96.12 51.8104Z" fill="#FF365D"/>
<path d="M68.0844 49.6881C68.7032 49.7754 69.1178 50.3758 68.9867 50.9868C68.6522 52.545 68.3315 55.9787 70.9457 58.9852C75.1971 63.8745 76.5318 66.8205 76.7871 70.7526C76.8051 71.0295 76.4526 71.1609 76.2907 70.9355C75.275 69.5213 72.8074 66.4934 68.765 63.977C63.287 60.5667 62.5457 55.0594 63.8307 52.327C64.8106 50.2435 66.6815 49.4901 68.0844 49.6881Z" fill="#FF365D"/>
<path d="M101.548 49.6881C100.93 49.7754 100.515 50.3758 100.646 50.9868C100.981 52.545 101.301 55.9787 98.6872 58.9852C94.4357 63.8745 93.1011 66.8205 92.8458 70.7526C92.8278 71.0295 93.1803 71.1609 93.3422 70.9355C94.3579 69.5213 96.8255 66.4934 100.868 63.977C106.346 60.5667 107.087 55.0594 105.802 52.327C104.822 50.2435 102.951 49.4901 101.548 49.6881Z" fill="#FF365D"/>
<path d="M77.3256 63.1006C77.2397 63.0717 77.1732 63.182 77.2323 63.2545C77.6524 63.7694 78.5085 65.0492 78.5903 67.0054C78.6992 69.6078 78.6275 72.2903 81.0723 72.1003C83.8103 71.8874 83.4854 65.1734 77.3256 63.1006Z" fill="#FF365D"/>
<path d="M92.3071 63.1006C92.3931 63.0717 92.4596 63.182 92.4005 63.2545C91.9804 63.7694 91.1243 65.0492 91.0424 67.0054C90.9336 69.6078 91.0052 72.2903 88.5605 72.1003C85.8225 71.8874 86.1473 65.1734 92.3071 63.1006Z" fill="#FF365D"/>
<path d="M64.6185 81.6298C63.2323 81.6566 56.4572 81.5258 53.7361 76.5717C53.7006 76.507 53.6224 76.4801 53.5569 76.5143C52.9713 76.8196 50.4326 78.3591 51.5077 81.6321C52.7434 85.3937 61.4248 87.208 64.7397 81.8385C64.7964 81.7467 64.7263 81.6278 64.6185 81.6298Z" fill="#FF365D"/>
<path d="M56.5909 88.0476C57.8224 88.1049 61.6471 87.9636 65.0067 84.4591C65.1871 84.2709 65.5029 84.3705 65.5462 84.6276C65.7367 85.7581 65.883 88.2362 64.0614 90.1563C61.5895 92.7618 57.0981 91.9692 56.2665 88.4379C56.2181 88.2326 56.3803 88.0378 56.5909 88.0476Z" fill="#FF365D"/>
<path d="M105.025 81.6298C106.411 81.6566 113.186 81.5258 115.907 76.5717C115.943 76.507 116.021 76.4801 116.086 76.5143C116.672 76.8196 119.211 78.3591 118.135 81.6321C116.9 85.3937 108.218 87.208 104.903 81.8385C104.847 81.7467 104.917 81.6278 105.025 81.6298Z" fill="#FF365D"/>
<path d="M113.052 88.0476C111.821 88.1049 107.996 87.9636 104.636 84.4591C104.456 84.2709 104.14 84.3705 104.097 84.6276C103.906 85.7581 103.76 88.2362 105.582 90.1563C108.054 92.7618 112.545 91.9692 113.377 88.4379C113.425 88.2326 113.263 88.0378 113.052 88.0476Z" fill="#FF365D"/>
<path d="M53.5954 63.0616C51.7018 65.2549 50.4182 68.2614 51.3343 71.1521C51.6078 72.0979 52.0449 73.0126 52.5852 73.8818C52.8053 74.2384 52.3044 74.6082 52.0295 74.2882C49.2814 71.1795 49.0874 66.7657 51.8423 63.5831C52.2048 63.1587 52.5889 62.7824 53.061 62.4377C53.2444 62.3038 53.5017 62.344 53.6356 62.5274C53.7583 62.6947 53.733 62.9191 53.5954 63.0616Z" fill="#6B1A4E"/>
<path d="M116.572 62.438C120.428 65.4253 120.807 70.6719 117.603 74.2885C117.48 74.4334 117.262 74.4506 117.117 74.3268C116.985 74.214 116.959 74.0229 117.049 73.8804C117.589 73.0116 118.025 72.0977 118.299 71.1524C119.215 68.2616 117.931 65.2553 116.037 63.0619C115.689 62.7029 116.166 62.1454 116.572 62.438Z" fill="#6B1A4E"/>
<path d="M55.8525 68.5272C55.8569 68.3113 56.0637 68.1578 56.2683 68.227C57.0777 68.5008 59.2997 69.0656 64.4213 69.3619C72.2956 69.8174 75.1544 75.0393 76.0995 80.9414C76.1438 81.2183 75.8355 81.4134 75.6054 81.253C74.4921 80.4767 71.7942 78.9948 67.0382 78.6232C60.6895 78.1272 55.7403 73.9638 55.8525 68.5272Z" fill="#6B1A4E"/>
<path d="M113.78 68.5272C113.776 68.3113 113.569 68.1578 113.365 68.227C112.555 68.5008 110.333 69.0656 105.212 69.3619C97.3372 69.8174 94.4785 75.0393 93.5333 80.9414C93.489 81.2183 93.7974 81.4134 94.0274 81.253C95.1408 80.4767 97.8386 78.9948 102.595 78.6232C108.943 78.1272 113.893 73.9638 113.78 68.5272Z" fill="#6B1A4E"/>
<path d="M84.8164 80.1644C81.9346 80.1644 80.2633 81.0065 79.3741 81.7026C78.7135 82.2197 78.6419 83.1906 79.2083 83.8095C79.8152 84.4727 80.6006 84.8031 81.1081 84.9582C81.4266 85.0555 81.7026 85.2631 81.8848 85.5419C82.3104 86.1932 83.2646 87.3061 84.8164 87.3061C86.3683 87.3061 87.3226 86.1932 87.7481 85.5419C87.9303 85.2631 88.2062 85.0555 88.5248 84.9582C89.0487 84.7981 89.8687 84.4512 90.4828 83.7442C91.0105 83.1367 90.8941 82.2005 90.2607 81.7041C89.372 81.0077 87.7005 80.1644 84.8164 80.1644Z" fill="#6B1A4E"/>
<path d="M85.1824 86.976C85.5408 89.6343 84.5728 93.0005 81.8133 93.9932C80.8936 94.3355 79.881 94.3235 79.021 94.2153C77.2786 94.0379 75.4988 93.5717 73.9356 92.697C73.1536 92.2702 72.4349 91.7743 71.7461 91.3048C71.0546 90.836 70.3773 90.4057 69.636 90.0631C69.4386 89.9733 69.3518 89.7396 69.4429 89.5428C69.5221 89.3713 69.71 89.2844 69.887 89.3259C71.5981 89.7122 73.0121 90.8662 74.4957 91.6525C75.9418 92.4166 77.5254 92.8211 79.1537 92.9812C81.8366 93.4197 83.4216 91.9382 84.0279 89.4059C84.2303 88.626 84.37 87.7934 84.4636 86.9851C84.5102 86.5695 85.1256 86.5619 85.1824 86.976Z" fill="#6B1A4E"/>
<path d="M77.6034 93.1208C77.6034 93.1208 74.2238 90.2206 71.5612 89.2073C68.8985 88.194 67.1916 89.4519 68.3523 90.7098C69.513 91.9677 72.1756 92.8413 77.6034 93.1208Z" fill="#6B1A4E"/>
<path d="M85.1824 87.0088C85.8226 92.34 87.5449 93.9926 92.8953 92.5383C95.4102 91.9755 97.2408 89.9455 99.7562 89.3253C100.205 89.2213 100.433 89.8653 100.01 90.0617C99.2673 90.4042 98.5894 90.8351 97.8972 91.3044C97.2084 91.7739 96.4897 92.2698 95.7077 92.6966C94.1445 93.5712 92.3647 94.0375 90.6223 94.2149C89.7623 94.3231 88.7496 94.335 87.8301 93.9928C85.07 92.9992 84.1035 89.6349 84.4609 86.9757C84.5285 86.5449 85.1556 86.577 85.1824 87.0088Z" fill="#6B1A4E"/>
<path d="M92.0398 93.1208C92.0398 93.1208 95.4193 90.2206 98.082 89.2073C100.745 88.194 102.452 89.4519 101.291 90.7098C100.13 91.9677 97.4675 92.8413 92.0398 93.1208Z" fill="#6B1A4E"/>
<path d="M84.8252 82.6758C86.6722 82.6758 88.1695 82.37 88.1695 81.9929C88.1695 81.6157 86.6722 81.3099 84.8252 81.3099C82.9781 81.3099 81.4808 81.6157 81.4808 81.9929C81.4808 82.37 82.9781 82.6758 84.8252 82.6758Z" fill="white"/>
<path d="M84.8164 107.731C84.2255 107.731 83.6346 107.684 83.0477 107.589C48.3529 102.002 44.8062 82.7983 44.5456 77.0458C44.4909 75.8433 45.1016 74.7155 46.1389 74.1022C47.4472 73.329 49.0584 72.4975 49.8846 72.0793C48.6118 67.8572 50.7347 64.5573 51.3703 63.6971C51.0605 44.1864 61.0949 32.5592 65.4378 28.4549C66.0486 27.8775 66.8761 27.5691 67.7195 27.6129C68.5642 27.6554 69.3328 28.0301 69.8842 28.6678C72.6574 31.8767 74.2406 36.8875 74.7514 38.7134C79.6958 37.4449 84.5887 37.3415 84.8037 37.3375C85.0429 37.3415 89.9368 37.4449 94.8815 38.7134C95.3922 36.8875 96.9754 31.8767 99.7487 28.6678C100.3 28.0302 101.068 27.6555 101.913 27.6129C102.756 27.5714 103.584 27.8773 104.195 28.4549C108.538 32.5594 118.572 44.1871 118.263 63.6971C118.898 64.5573 121.021 67.8572 119.748 72.0793C120.574 72.4975 122.186 73.329 123.494 74.1022C124.531 74.7152 125.141 75.8431 125.087 77.0455C124.827 82.7979 121.274 102 86.5849 107.589C85.9983 107.684 85.4074 107.731 84.8164 107.731ZM67.5611 28.9954C67.1237 28.9954 66.711 29.1595 66.3901 29.4625C62.1634 33.4571 52.3743 44.8108 52.761 63.9145C52.7646 64.0824 52.7069 64.2461 52.5988 64.3745C52.4837 64.5131 49.7722 67.8472 51.3833 72.1881C51.5068 72.5212 51.3587 72.8939 51.0402 73.0511C51.0161 73.063 48.6039 74.2558 46.8447 75.2959C46.2497 75.6475 45.8995 76.2939 45.9307 76.9829C46.1793 82.4711 49.6065 100.799 83.2682 106.22C84.2957 106.386 85.3375 106.386 86.3645 106.22C120.026 100.799 123.454 82.4711 123.702 76.9829C123.733 76.2939 123.383 75.6475 122.788 75.2959C121.029 74.2559 118.617 73.063 118.593 73.0511C118.274 72.8939 118.126 72.5212 118.25 72.1882C119.86 67.8472 117.149 64.513 117.033 64.3731C116.926 64.2449 116.868 64.0812 116.872 63.9145C117.259 44.8115 107.47 33.4573 103.243 29.4625C102.9 29.139 102.45 28.9738 101.983 28.9976C101.52 29.0209 101.099 29.2258 100.798 29.5745C97.6512 33.2152 96.0633 39.6611 96.0476 39.7256C96.0034 39.9085 95.8868 40.0654 95.7248 40.1604C95.5626 40.2558 95.3692 40.2813 95.1875 40.2304C90.1903 38.837 84.857 38.7247 84.8036 38.7237C84.7757 38.7246 79.4354 38.8389 74.4453 40.2304C74.2636 40.2809 74.0702 40.2555 73.9079 40.1604C73.746 40.0654 73.6293 39.9085 73.5851 39.7256C73.5694 39.661 71.9816 33.2152 68.835 29.5745C68.5335 29.2258 68.1127 29.0209 67.6496 28.9976C67.6201 28.9962 67.5906 28.9954 67.5611 28.9954Z" fill="#6B1A4E"/>
<defs>
<linearGradient id="paint0_linear_39_4090" x1="79.1132" y1="11.2012" x2="98.0503" y2="23.8018" gradientUnits="userSpaceOnUse">
<stop stop-color="#FE9738"/>
<stop offset="1" stop-color="#EF4424"/>
</linearGradient>
<linearGradient id="paint1_linear_39_4090" x1="30.0741" y1="39.9476" x2="51.4459" y2="49.3301" gradientUnits="userSpaceOnUse">
<stop stop-color="#FE9738"/>
<stop offset="1" stop-color="#EF4424"/>
</linearGradient>
<linearGradient id="paint2_linear_39_4090" x1="23.0659" y1="76.3043" x2="50.3051" y2="95.6341" gradientUnits="userSpaceOnUse">
<stop stop-color="#FE9738"/>
<stop offset="1" stop-color="#EF4424"/>
</linearGradient>
<linearGradient id="paint3_linear_39_4090" x1="25.0333" y1="114.074" x2="42.0179" y2="133.219" gradientUnits="userSpaceOnUse">
<stop stop-color="#FE9738"/>
<stop offset="1" stop-color="#EF4424"/>
</linearGradient>
<linearGradient id="paint4_linear_39_4090" x1="36.9501" y1="135.899" x2="53.6896" y2="152.91" gradientUnits="userSpaceOnUse">
<stop stop-color="#FE9738"/>
<stop offset="1" stop-color="#EF4424"/>
</linearGradient>
<linearGradient id="paint5_linear_39_4090" x1="126.252" y1="39.9466" x2="147.624" y2="49.329" gradientUnits="userSpaceOnUse">
<stop stop-color="#FE9738"/>
<stop offset="1" stop-color="#EF4424"/>
</linearGradient>
<linearGradient id="paint6_linear_39_4090" x1="125.187" y1="76.3043" x2="152.426" y2="95.6341" gradientUnits="userSpaceOnUse">
<stop stop-color="#FE9738"/>
<stop offset="1" stop-color="#EF4424"/>
</linearGradient>
<linearGradient id="paint7_linear_39_4090" x1="124.469" y1="114.074" x2="141.453" y2="133.219" gradientUnits="userSpaceOnUse">
<stop stop-color="#FE9738"/>
<stop offset="1" stop-color="#EF4424"/>
</linearGradient>
<linearGradient id="paint8_linear_39_4090" x1="114.92" y1="135.898" x2="131.66" y2="152.909" gradientUnits="userSpaceOnUse">
<stop stop-color="#FE9738"/>
<stop offset="1" stop-color="#EF4424"/>
</linearGradient>
<linearGradient id="paint9_linear_39_4090" x1="59.077" y1="135.311" x2="68.9846" y2="138.51" gradientUnits="userSpaceOnUse">
<stop stop-color="#FE9738"/>
<stop offset="1" stop-color="#EF4424"/>
</linearGradient>
<linearGradient id="paint10_linear_39_4090" x1="104.845" y1="135.311" x2="114.752" y2="138.51" gradientUnits="userSpaceOnUse">
<stop stop-color="#FE9738"/>
<stop offset="1" stop-color="#EF4424"/>
</linearGradient>
<linearGradient id="paint11_linear_39_4090" x1="76.6624" y1="124.023" x2="99.187" y2="138.064" gradientUnits="userSpaceOnUse">
<stop stop-color="#FE9738"/>
<stop offset="1" stop-color="#EF4424"/>
</linearGradient>
<linearGradient id="paint12_linear_39_4090" x1="69.6732" y1="39.7362" x2="111.281" y2="65.8662" gradientUnits="userSpaceOnUse">
<stop stop-color="#FE9738"/>
<stop offset="1" stop-color="#EF4424"/>
</linearGradient>
</defs>
</svg>
